<?xml version="1.0" encoding="utf-8"?>
<!-- Generator: Adobe Illustrator 23.0.3, SVG Export Plug-In . SVG Version: 6.00 Build 0)  -->
<svg version="1.1" id="Capa_1" xmlns="http://www.w3.org/2000/svg" xmlns:xlink="http://www.w3.org/1999/xlink" x="0px" y="0px"
	 viewBox="0 0 25 25" style="enable-background:new 0 0 25 25;" xml:space="preserve">
<style type="text/css">
	.st0{fill:#FFFFFF;}
</style>
<g>
	<path class="st0" d="M20,0c-0.2,0.7-0.7,1.2-1.1,1.8c-2.3,3.4-4.7,6.8-7,10.3c-0.2,0.3-0.2,0.6,0,0.9c2.7,3.9,5.3,7.8,8,11.7
		c0.1,0.1,0.2,0.2,0.2,0.4c-2.2,0-4.4,0-6.6,0c-0.4-0.9-1.1-1.7-1.7-2.6c-2.1-3.2-4.3-6.3-6.5-9.5c-0.2-0.3-0.2-0.6,0-0.9
		c2.7-3.9,5.4-7.8,8-11.7c0.1-0.1,0.2-0.2,0.2-0.4C15.6,0,17.8,0,20,0z"/>
</g>
</svg>
