<svg id="Layer_2" data-name="Layer 2" xmlns="http://www.w3.org/2000/svg" viewBox="0 0 1894.74 1313.53"><defs><style>.cls-1,.cls-14{fill:#d4ecff;}.cls-2{fill:#5793ce;}.cls-3{fill:#79b1e0;}.cls-4{fill:#fff;}.cls-5{fill:#ff2c9c;}.cls-6{fill:#d3008d;}.cls-7{fill:#e573b5;}.cls-8,.cls-9{fill:#173d7a;}.cls-8{opacity:0.5;}.cls-10{fill:#396caa;}.cls-11{fill:#274f89;}.cls-12{fill:#ffc2b0;}.cls-13{fill:#fafdff;}.cls-14{opacity:0.4;}</style></defs><title>courses-img</title><path class="cls-1" d="M754.45,818.24c-14.43,8.33-14.43,21.89,0,30.22l245.3,141.62a15.89,15.89,0,0,0,14.37,0c4-2.29,4-6,0-8.29L768.82,840.16c-6.51-3.76-6.51-9.87,0-13.63l23.77-13.72c-2.64-4-5-8.11-7.38-12.33Z" transform="translate(-52.26 -343.4)"/><path class="cls-2" d="M1101.87,931.12,856.57,789.5c-14.43-8.33-37.91-8.33-52.34,0l-19,11c2.34,4.22,4.74,8.36,7.38,12.33l26-15c6.5-3.75,17.09-3.75,23.6,0l245.3,141.63a15.89,15.89,0,0,0,14.37,0C1105.84,937.13,1105.84,933.41,1101.87,931.12Z" transform="translate(-52.26 -343.4)"/><polygon class="cls-2" points="1052.56 592.17 1052.58 247.24 795.52 103.94 759.57 101.56 724.81 124.08 703.48 142.65 953.93 539.82 1035.71 588.02 1052.56 592.17"/><polygon class="cls-3" points="957.49 635.73 1034.33 591.37 1034.33 258.01 955.12 294.83 957.49 635.73"/><polygon class="cls-1" points="691.37 145.32 691.37 489.69 961.23 644.05 964.83 642.6 964.83 297.73 691.37 145.32"/><path class="cls-4" d="M895.41,491.57l-53.63-30.82c-6.55-3-16.13-2.84-22.2.66l-49.77,28.74c-3.86,2.23-5.41,5.28-4.7,8.18l135.52,81,108.86,66.82,77.1-44.72Z" transform="translate(-52.26 -343.4)"/><path class="cls-2" d="M1007.38,635.71V991.78a14.56,14.56,0,0,0,6.74-1.7c2-1.12,2.93-2.59,3-4.07h0V641.13Z" transform="translate(-52.26 -343.4)"/><polygon class="cls-4" points="1052.58 251.54 1052.58 247.24 1051.21 247.24 1050.79 250.16 1052.58 251.54"/><polygon class="cls-4" points="964.82 302.2 964.82 297.79 963.5 299.66 964.82 302.2"/><path class="cls-1" d="M999.75,645.21,754.45,503.58c-14.43-8.33-14.43-21.88,0-30.22l49.78-28.73c14.43-8.34,37.91-8.34,52.34,0l245.3,141.62c4,2.29,4,6,0,8.3a15.89,15.89,0,0,1-14.37,0L842.2,452.92c-6.51-3.76-17.1-3.76-23.6,0l-49.78,28.74c-6.51,3.76-6.51,9.87,0,13.63l245.3,141.62c4,2.29,4,6,0,8.3A15.89,15.89,0,0,1,999.75,645.21Z" transform="translate(-52.26 -343.4)"/><polygon class="cls-4" points="883.56 465.08 756.09 391.48 756.09 263.7 883.56 337.29 883.56 465.08"/><path class="cls-4" d="M1101.87,594.55a15.89,15.89,0,0,1-14.37,0L842.2,452.92c-6.51-3.76-17.1-3.76-23.6,0l-49.78,28.74c-4.26,2.46-5.71,5.93-4.4,9.09a9.91,9.91,0,0,1,4.4-4.55l49.78-28.74c6.5-3.75,17.09-3.75,23.6,0l245.3,141.62a15.89,15.89,0,0,0,14.37,0c3-1.74,3.72-4.29,2.17-6.42A6.94,6.94,0,0,1,1101.87,594.55Z" transform="translate(-52.26 -343.4)"/><path class="cls-4" d="M1014.12,645.21a15.89,15.89,0,0,1-14.37,0L754.45,503.58c-6.21-3.58-9.74-8.14-10.6-12.83-1.14,6.2,2.38,12.63,10.6,17.38l245.3,141.62a15.89,15.89,0,0,0,14.37,0c3-1.73,3.72-4.29,2.17-6.42A6.94,6.94,0,0,1,1014.12,645.21Z" transform="translate(-52.26 -343.4)"/><path class="cls-5" d="M612,906.58c-14.43,8.33-14.43,21.89,0,30.22l245.3,141.63a15.89,15.89,0,0,0,14.37,0c4-2.29,4-6,0-8.3L626.39,928.51c-6.51-3.76-6.51-9.87,0-13.63l23.77-13.73c-2.64-4-5-8.1-7.38-12.32Z" transform="translate(-52.26 -343.4)"/><path class="cls-6" d="M959.44,1019.47,714.14,877.84c-14.43-8.33-37.91-8.33-52.34,0l-19,11c2.34,4.22,4.74,8.35,7.38,12.32l26-15c6.51-3.76,17.09-3.76,23.6,0l245.3,141.62a15.89,15.89,0,0,0,14.37,0C963.41,1025.47,963.41,1021.76,959.44,1019.47Z" transform="translate(-52.26 -343.4)"/><polygon class="cls-6" points="910.13 680.51 910.15 335.58 653.09 192.28 617.14 189.91 582.38 212.43 561.05 230.99 811.5 628.17 893.28 676.36 910.13 680.51"/><polygon class="cls-7" points="815.06 724.08 891.9 679.72 891.9 346.36 812.69 383.18 815.06 724.08"/><polygon class="cls-5" points="548.94 233.66 548.94 578.03 818.8 732.39 822.4 730.95 822.4 386.07 548.94 233.66"/><path class="cls-4" d="M753,579.91,699.35,549.1c-6.55-3-16.12-2.84-22.2.66L627.38,578.5c-3.86,2.23-5.41,5.28-4.7,8.18l135.52,81,108.86,66.82,77.1-44.73Z" transform="translate(-52.26 -343.4)"/><path class="cls-6" d="M865,724.06v356.06a14.43,14.43,0,0,0,6.74-1.69c1.95-1.13,2.93-2.6,3-4.08h0V729.47Z" transform="translate(-52.26 -343.4)"/><polygon class="cls-4" points="910.15 339.88 910.15 335.58 908.78 335.58 908.36 338.5 910.15 339.88"/><polygon class="cls-4" points="822.39 390.54 822.39 386.14 821.07 388.01 822.39 390.54"/><path class="cls-5" d="M857.32,733.55,612,591.93c-14.43-8.33-14.43-21.89,0-30.22L661.8,533c14.43-8.33,37.91-8.33,52.34,0L959.44,674.6c4,2.29,4,6,0,8.29a15.89,15.89,0,0,1-14.37,0L699.77,541.27c-6.51-3.76-17.09-3.76-23.6,0L626.39,570c-6.51,3.75-6.51,9.87,0,13.62l245.3,141.63c4,2.29,4,6,0,8.29A15.89,15.89,0,0,1,857.32,733.55Z" transform="translate(-52.26 -343.4)"/><polygon class="cls-4" points="741.13 553.42 613.66 479.83 613.66 352.04 741.13 425.64 741.13 553.42"/><path class="cls-4" d="M959.44,682.89a15.89,15.89,0,0,1-14.37,0L699.77,541.27c-6.51-3.76-17.09-3.76-23.6,0L626.39,570c-4.26,2.46-5.71,5.92-4.39,9.08a9.86,9.86,0,0,1,4.39-4.54l49.78-28.74c6.51-3.76,17.09-3.76,23.6,0l245.3,141.62a15.83,15.83,0,0,0,14.37,0c3-1.73,3.73-4.28,2.18-6.41A7,7,0,0,1,959.44,682.89Z" transform="translate(-52.26 -343.4)"/><path class="cls-4" d="M871.69,733.55a15.89,15.89,0,0,1-14.37,0L612,591.93c-6.21-3.59-9.74-8.15-10.6-12.84-1.14,6.2,2.39,12.64,10.6,17.38L857.32,738.1a15.89,15.89,0,0,0,14.37,0c3-1.74,3.72-4.29,2.17-6.42A6.79,6.79,0,0,1,871.69,733.55Z" transform="translate(-52.26 -343.4)"/><path class="cls-8" d="M1349,1651.06l-532-307.13c-15-8.69-13.16-23.86,4.21-33.9L1183.5,1101c17.38-10,43.66-11.12,58.71-2.43l532,307.13c15,8.69,13.16,23.86-4.22,33.89l-362.23,209.07C1390.36,1658.66,1364.07,1659.75,1349,1651.06Z" transform="translate(-52.26 -343.4)"/><path class="cls-9" d="M1925.58,816.37,1370,495.59c-6.45-3.72-13-4.3-18.83-2.31l0,0-1,.38-.25.09-20.08,7.68,18,8.83c-.09.33-.19.64-.26,1l-90.5,411.94c-4.53,20.62,4.54,44.69,20.26,53.76L1819.61,1290l-1.94,23,21.95-8.51c7.37-3.45,13.28-11.25,15.72-22.35l90.49-411.95C1950.36,849.51,1941.29,825.45,1925.58,816.37Z" transform="translate(-52.26 -343.4)"/><path class="cls-10" d="M1925.58,816.37,1370,495.59c-6.45-3.72-13-4.3-18.83-2.31l0,0-1,.38-.25.09-20.08,7.68,18,8.83c-.09.33-.19.64-.26,1L1288,782.69l271.85,211.79,383.32-156C1939.44,829,1933.32,820.84,1925.58,816.37Z" transform="translate(-52.26 -343.4)"/><path class="cls-11" d="M1904.63,879.69l42.29-18c.78-16.38-6-33.3-17.13-42.35l-67,28.16Z" transform="translate(-52.26 -343.4)"/><path class="cls-1" d="M1798.37,1310.75,1242.77,990c-15.72-9.07-24.79-33.14-20.26-53.76L1313,524.27c4.53-20.62,20.94-30,36.66-20.9l555.6,320.78c15.72,9.07,24.79,33.14,20.26,53.76L1835,1289.85C1830.5,1310.47,1814.09,1319.83,1798.37,1310.75Z" transform="translate(-52.26 -343.4)"/><path class="cls-4" d="M1910.61,822.2,1355,501.42c-7.61-4.4-15.36-4.39-21.87-.95a22.84,22.84,0,0,1,16.54,2.9l555.6,320.78c15.72,9.07,24.79,33.14,20.26,53.76L1835,1289.85c-2.33,10.63-7.85,18.19-14.78,21.85,9.38-2,17.21-10.56,20.12-23.8L1930.87,876C1935.39,855.34,1926.32,831.27,1910.61,822.2Z" transform="translate(-52.26 -343.4)"/><path class="cls-4" d="M1786.33,1280.11,1263.79,978.57c-14.38-8.3-22.68-30.33-18.54-49.19l82.82-377c4.14-18.86,19.16-27.42,33.54-19.12l522.54,301.54c14.38,8.3,22.68,30.33,18.54,49.19l-82.81,377C1815.73,1279.85,1800.71,1288.41,1786.33,1280.11Z" transform="translate(-52.26 -343.4)"/><path class="cls-9" d="M1786.33,1280.11,1263.79,978.57c-14.38-8.3-22.68-30.33-18.54-49.19l82.82-377c4.14-18.86,19.16-27.42,33.54-19.12l522.54,301.54c14.38,8.3,22.68,30.33,18.54,49.19l-82.81,377C1815.73,1279.85,1800.71,1288.41,1786.33,1280.11Z" transform="translate(-52.26 -343.4)"/><path class="cls-2" d="M1790.88,1278.26,1268.35,976.72c-14.39-8.31-22.69-30.33-18.54-49.19l82.81-377c2.1-9.55,7-16.42,13.17-19.84-8.28,2.13-15.13,9.89-17.72,21.69l-82.82,377c-4.14,18.86,4.16,40.89,18.54,49.19l522.54,301.54c7.1,4.1,14.35,4.06,20.38.72C1801.75,1282.11,1796.27,1281.37,1790.88,1278.26Z" transform="translate(-52.26 -343.4)"/><path class="cls-9" d="M1806,1324.72l-75.94-10-490.26-283c-15.72-9.07-43.17-7.93-61.32,2.55L831.13,1234.68l-45.93-6.06v26.05h0c-.3,6,3.13,11.81,10.54,16.1l555.61,320.77c15.71,9.08,43.17,7.94,61.32-2.54L1791,1370.66c10.21-5.9,15.3-13.49,15-20.62h0Z" transform="translate(-52.26 -343.4)"/><path class="cls-10" d="M1437.68,1145.87l-34.83-20.11H1019.91L831.13,1234.68l-45.93-6.06v26.05h0c-.3,6,3.13,11.81,10.54,16.1l555.61,320.77c8.3,4.8,19.89,6.71,31.64,5.93Z" transform="translate(-52.26 -343.4)"/><path class="cls-2" d="M805.58,1231.31l-20.38-2.69v26.05h0c-.3,6,3.13,11.81,10.54,16.1l9.79,5.65Z" transform="translate(-52.26 -343.4)"/><path class="cls-11" d="M1357,1594.15c14.9,5.65,36.2,4.42,52.1-3.23V1532.8H1357Z" transform="translate(-52.26 -343.4)"/><path class="cls-1" d="M1351.4,1565.53,795.79,1244.75c-15.72-9.08-13.75-24.93,4.4-35.4L1178.52,991c18.15-10.48,45.6-11.61,61.32-2.54l555.6,320.78c15.72,9.07,13.75,24.92-4.4,35.4L1412.72,1563C1394.57,1573.46,1367.11,1574.6,1351.4,1565.53Z" transform="translate(-52.26 -343.4)"/><path class="cls-4" d="M1791,1335.11l-378.32,218.36c-18.15,10.48-45.61,11.61-61.32,2.54L795.79,1235.23c-5.15-3-8.37-6.68-9.77-10.69-2.46,7.44.68,15,9.77,20.21l555.61,320.78c15.71,9.07,43.17,7.93,61.32-2.54L1791,1344.63c12.2-7,17-16.5,14.18-24.71C1803.43,1325.33,1798.69,1330.7,1791,1335.11Z" transform="translate(-52.26 -343.4)"/><path class="cls-2" d="M1032.1,1138.55,1007,1124c-2-1.17-1.77-3.2.56-4.55l29.68-17.13c2.33-1.35,5.85-1.49,7.87-.33l25.14,14.52c2,1.16,1.77,3.2-.57,4.54L1040,1138.23C1037.64,1139.57,1034.12,1139.72,1032.1,1138.55Z" transform="translate(-52.26 -343.4)"/><path class="cls-2" d="M1070.92,1161l-25.14-14.52c-2-1.16-1.76-3.2.57-4.54l29.67-17.14c2.33-1.34,5.86-1.49,7.87-.32L1109,1139c2,1.17,1.77,3.2-.56,4.55l-29.68,17.13C1076.46,1162,1072.94,1162.13,1070.92,1161Z" transform="translate(-52.26 -343.4)"/><path class="cls-2" d="M1109.74,1183.38l-25.14-14.51c-2-1.17-1.76-3.2.57-4.55l29.67-17.13c2.33-1.35,5.86-1.49,7.88-.33l25.13,14.52c2,1.16,1.77,3.2-.56,4.54l-29.67,17.13C1115.29,1184.4,1111.76,1184.55,1109.74,1183.38Z" transform="translate(-52.26 -343.4)"/><path class="cls-2" d="M1163.43,1164.87l-25.13-14.51c-2-1.17-1.77-3.2.56-4.55l24.91-14.38c2.33-1.35,5.86-1.49,7.87-.33l25.14,14.52c2,1.16,1.77,3.2-.56,4.54l-24.91,14.38C1169,1165.89,1165.45,1166,1163.43,1164.87Z" transform="translate(-52.26 -343.4)"/><path class="cls-2" d="M1202.26,1187.28l-25.14-14.51c-2-1.17-1.77-3.2.56-4.55l24.91-14.38c2.33-1.34,5.86-1.49,7.88-.32l25.14,14.51c2,1.17,1.76,3.2-.57,4.55L1210.13,1187C1207.8,1188.3,1204.28,1188.45,1202.26,1187.28Z" transform="translate(-52.26 -343.4)"/><path class="cls-2" d="M1241.08,1209.7l-25.14-14.52c-2-1.16-1.77-3.2.57-4.54l24.9-14.38c2.33-1.35,5.86-1.5,7.88-.33l25.14,14.51c2,1.17,1.76,3.2-.57,4.55L1249,1209.37C1246.62,1210.72,1243.1,1210.86,1241.08,1209.7Z" transform="translate(-52.26 -343.4)"/><path class="cls-2" d="M1279.9,1232.11l-25.14-14.51c-2-1.17-1.76-3.2.57-4.55l24.91-14.38c2.33-1.35,5.85-1.49,7.87-.33l25.14,14.52c2,1.16,1.76,3.2-.57,4.54l-24.9,14.39C1285.44,1233.13,1281.92,1233.28,1279.9,1232.11Z" transform="translate(-52.26 -343.4)"/><path class="cls-2" d="M1318.72,1254.53,1293.58,1240c-2-1.16-1.76-3.2.57-4.54l24.91-14.39c2.33-1.34,5.85-1.49,7.87-.32l25.14,14.51c2,1.17,1.77,3.2-.56,4.55l-24.91,14.38C1324.27,1255.54,1320.74,1255.69,1318.72,1254.53Z" transform="translate(-52.26 -343.4)"/><path class="cls-2" d="M1357.54,1276.94l-25.13-14.51c-2-1.17-1.77-3.21.56-4.55l24.91-14.38c2.33-1.35,5.86-1.49,7.87-.33l25.14,14.52c2,1.16,1.77,3.2-.56,4.54l-24.91,14.38C1363.09,1278,1359.56,1278.1,1357.54,1276.94Z" transform="translate(-52.26 -343.4)"/><path class="cls-2" d="M1396.37,1299.35l-25.14-14.51c-2-1.17-1.77-3.2.56-4.55l24.91-14.38c2.33-1.34,5.86-1.49,7.88-.32l25.14,14.51c2,1.16,1.76,3.2-.57,4.55L1404.24,1299C1401.91,1300.37,1398.39,1300.52,1396.37,1299.35Z" transform="translate(-52.26 -343.4)"/><path class="cls-2" d="M1435.19,1321.77l-25.14-14.52c-2-1.16-1.77-3.2.57-4.54l24.9-14.38c2.33-1.35,5.86-1.5,7.88-.33l25.14,14.51c2,1.17,1.76,3.2-.57,4.55l-24.91,14.38C1440.73,1322.79,1437.21,1322.93,1435.19,1321.77Z" transform="translate(-52.26 -343.4)"/><path class="cls-2" d="M1474,1344.18l-25.14-14.51c-2-1.17-1.76-3.2.57-4.55l24.91-14.38c2.33-1.35,5.85-1.49,7.87-.33l25.14,14.52c2,1.16,1.76,3.2-.57,4.54l-24.9,14.38C1479.56,1345.2,1476,1345.35,1474,1344.18Z" transform="translate(-52.26 -343.4)"/><path class="cls-2" d="M1512.83,1366.6l-25.14-14.52c-2-1.16-1.76-3.2.57-4.55l24.91-14.38c2.33-1.34,5.85-1.49,7.87-.32l25.14,14.51c2,1.17,1.77,3.2-.56,4.55l-24.91,14.38C1518.38,1367.61,1514.85,1367.76,1512.83,1366.6Z" transform="translate(-52.26 -343.4)"/><path class="cls-2" d="M1220.64,1154.26l-25.14-14.52c-2-1.16-1.77-3.2.56-4.54l24.91-14.38c2.33-1.35,5.86-1.49,7.88-.33L1254,1135c2,1.17,1.77,3.21-.56,4.55l-24.91,14.38C1226.18,1155.28,1222.65,1155.42,1220.64,1154.26Z" transform="translate(-52.26 -343.4)"/><path class="cls-2" d="M1181.23,1131.51,1156.1,1117c-2-1.17-1.77-3.2.56-4.55l24.91-14.38c2.33-1.35,5.86-1.49,7.87-.33l25.14,14.52c2,1.16,1.77,3.2-.56,4.54l-24.91,14.38C1186.78,1132.53,1183.25,1132.68,1181.23,1131.51Z" transform="translate(-52.26 -343.4)"/><path class="cls-2" d="M1141.77,1108.72l-54.14-31.26c-2-1.16-1.77-3.2.56-4.54l24.91-14.38c2.33-1.35,5.86-1.49,7.87-.33l54.15,31.26c2,1.17,1.76,3.2-.57,4.55l-24.91,14.38C1147.31,1109.74,1143.79,1109.89,1141.77,1108.72Z" transform="translate(-52.26 -343.4)"/><path class="cls-2" d="M1169.36,1081l-43.94-25.36c-2-1.17-1.77-3.2.56-4.55l24.91-14.38c2.33-1.35,5.86-1.49,7.88-.33l43.93,25.37c2,1.17,1.77,3.2-.56,4.55l-24.91,14.38C1174.9,1082,1171.37,1082.18,1169.36,1081Z" transform="translate(-52.26 -343.4)"/><path class="cls-2" d="M1259.46,1176.67l-25.14-14.51c-2-1.17-1.77-3.2.57-4.55l24.9-14.38c2.33-1.34,5.86-1.49,7.88-.33l25.14,14.52c2,1.16,1.76,3.2-.57,4.54l-24.91,14.39C1265,1177.69,1261.48,1177.84,1259.46,1176.67Z" transform="translate(-52.26 -343.4)"/><path class="cls-2" d="M1298.28,1199.09l-25.14-14.52c-2-1.16-1.76-3.2.57-4.54l24.91-14.39c2.33-1.34,5.85-1.49,7.87-.32l25.14,14.51c2,1.17,1.76,3.2-.57,4.55l-24.9,14.38C1303.82,1200.11,1300.3,1200.25,1298.28,1199.09Z" transform="translate(-52.26 -343.4)"/><path class="cls-2" d="M1337.1,1221.5,1312,1207c-2-1.17-1.76-3.2.57-4.55l24.91-14.38c2.33-1.35,5.85-1.49,7.87-.33l25.14,14.52c2,1.16,1.77,3.2-.56,4.54L1345,1221.17C1342.65,1222.52,1339.12,1222.67,1337.1,1221.5Z" transform="translate(-52.26 -343.4)"/><path class="cls-2" d="M1375.92,1243.91l-25.13-14.51c-2-1.17-1.77-3.2.56-4.55l24.91-14.38c2.33-1.34,5.86-1.49,7.87-.32l25.14,14.51c2,1.17,1.77,3.2-.56,4.55l-24.91,14.38C1381.47,1244.93,1377.94,1245.08,1375.92,1243.91Z" transform="translate(-52.26 -343.4)"/><path class="cls-2" d="M1414.75,1266.33l-25.14-14.52c-2-1.16-1.77-3.2.56-4.54l24.91-14.38c2.33-1.35,5.86-1.5,7.88-.33l25.14,14.51c2,1.17,1.76,3.2-.57,4.55L1422.62,1266C1420.29,1267.35,1416.76,1267.49,1414.75,1266.33Z" transform="translate(-52.26 -343.4)"/><path class="cls-2" d="M1453.57,1288.74l-25.14-14.51c-2-1.17-1.77-3.2.57-4.55l24.9-14.38c2.33-1.34,5.86-1.49,7.88-.33l25.14,14.52c2,1.16,1.76,3.2-.57,4.54l-24.91,14.39C1459.11,1289.76,1455.59,1289.91,1453.57,1288.74Z" transform="translate(-52.26 -343.4)"/><path class="cls-2" d="M1492.39,1311.16l-25.14-14.52c-2-1.16-1.76-3.2.57-4.54l24.91-14.39c2.33-1.34,5.85-1.49,7.87-.32l25.14,14.51c2,1.17,1.76,3.2-.57,4.55l-24.9,14.38C1497.93,1312.17,1494.41,1312.32,1492.39,1311.16Z" transform="translate(-52.26 -343.4)"/><path class="cls-2" d="M1531.21,1333.57l-25.14-14.51c-2-1.17-1.76-3.21.57-4.55l24.91-14.38c2.33-1.35,5.85-1.49,7.87-.33l25.14,14.52c2,1.16,1.77,3.2-.56,4.54l-24.91,14.38C1536.76,1334.59,1533.23,1334.74,1531.21,1333.57Z" transform="translate(-52.26 -343.4)"/><path class="cls-2" d="M1570,1356l-25.14-14.51c-2-1.17-1.77-3.2.56-4.55l24.91-14.38c2.33-1.34,5.86-1.49,7.87-.32l25.14,14.51c2,1.17,1.77,3.2-.56,4.55l-24.91,14.38C1575.58,1357,1572.05,1357.15,1570,1356Z" transform="translate(-52.26 -343.4)"/><path class="cls-2" d="M1639.05,1395.83l-54.85-31.67c-2-1.16-1.76-3.2.57-4.54l24.9-14.38c2.34-1.35,5.86-1.5,7.88-.33l54.85,31.67c2,1.16,1.77,3.2-.56,4.54l-24.91,14.38C1644.6,1396.85,1641.07,1397,1639.05,1395.83Z" transform="translate(-52.26 -343.4)"/><path class="cls-2" d="M1714.63,1352.19l-46.29-26.73c-2-1.16-1.77-3.2.56-4.54l24.91-14.38c2.33-1.35,5.86-1.5,7.88-.33l46.29,26.73c2,1.16,1.77,3.2-.56,4.55l-24.91,14.38C1720.18,1353.21,1716.65,1353.36,1714.63,1352.19Z" transform="translate(-52.26 -343.4)"/><path class="cls-2" d="M1327.44,1172.29l-25.13-14.52c-2-1.16-1.77-3.2.56-4.54l24.91-14.38c2.33-1.35,5.86-1.5,7.87-.33l25.14,14.51c2,1.17,1.77,3.2-.56,4.55L1335.32,1172C1333,1173.31,1329.46,1173.45,1327.44,1172.29Z" transform="translate(-52.26 -343.4)"/><path class="cls-2" d="M1287.66,1149.32l-25.14-14.52c-2-1.16-1.77-3.2.56-4.55l24.91-14.38c2.33-1.34,5.86-1.49,7.88-.32l25.13,14.51c2,1.17,1.77,3.2-.56,4.55L1295.53,1149C1293.2,1150.33,1289.67,1150.48,1287.66,1149.32Z" transform="translate(-52.26 -343.4)"/><path class="cls-2" d="M1247.87,1126.34l-25.14-14.51c-2-1.17-1.77-3.2.57-4.55l24.9-14.38c2.33-1.34,5.86-1.49,7.88-.32l25.14,14.51c2,1.17,1.76,3.2-.57,4.55L1255.74,1126C1253.41,1127.36,1249.89,1127.51,1247.87,1126.34Z" transform="translate(-52.26 -343.4)"/><path class="cls-2" d="M1208.08,1103.37l-25.14-14.51c-2-1.17-1.76-3.2.57-4.55l24.91-14.38c2.33-1.34,5.85-1.49,7.87-.33l25.14,14.52c2,1.16,1.76,3.2-.57,4.54l-24.9,14.39C1213.62,1104.39,1210.1,1104.54,1208.08,1103.37Z" transform="translate(-52.26 -343.4)"/><path class="cls-2" d="M1366.27,1194.7l-25.14-14.51c-2-1.17-1.77-3.2.56-4.55l24.91-14.38c2.33-1.35,5.86-1.49,7.88-.33l25.13,14.52c2,1.16,1.77,3.2-.56,4.54l-24.91,14.38C1371.81,1195.72,1368.28,1195.87,1366.27,1194.7Z" transform="translate(-52.26 -343.4)"/><path class="cls-2" d="M1405.09,1217.11,1380,1202.6c-2-1.16-1.77-3.2.56-4.55l24.91-14.38c2.33-1.34,5.86-1.49,7.88-.32l25.14,14.51c2,1.17,1.76,3.2-.57,4.55L1413,1216.79C1410.63,1218.13,1407.11,1218.28,1405.09,1217.11Z" transform="translate(-52.26 -343.4)"/><path class="cls-2" d="M1443.91,1239.53,1418.77,1225c-2-1.16-1.76-3.2.57-4.54l24.91-14.38c2.33-1.35,5.85-1.49,7.87-.33l25.14,14.51c2,1.17,1.76,3.21-.57,4.55l-24.9,14.38C1449.45,1240.55,1445.93,1240.69,1443.91,1239.53Z" transform="translate(-52.26 -343.4)"/><path class="cls-2" d="M1482.73,1261.94l-25.14-14.51c-2-1.17-1.76-3.2.57-4.55l24.91-14.38c2.33-1.34,5.85-1.49,7.87-.33l25.14,14.52c2,1.16,1.77,3.2-.56,4.54l-24.91,14.39C1488.28,1263,1484.75,1263.11,1482.73,1261.94Z" transform="translate(-52.26 -343.4)"/><path class="cls-2" d="M1521.55,1284.36l-25.13-14.52c-2-1.16-1.77-3.2.56-4.54l24.91-14.39c2.33-1.34,5.86-1.49,7.87-.32l25.14,14.51c2,1.17,1.77,3.2-.56,4.55L1529.43,1284C1527.1,1285.38,1523.57,1285.52,1521.55,1284.36Z" transform="translate(-52.26 -343.4)"/><path class="cls-2" d="M1560.38,1306.77l-25.14-14.51c-2-1.17-1.77-3.2.56-4.55l24.91-14.38c2.33-1.35,5.86-1.49,7.88-.33l25.14,14.52c2,1.16,1.76,3.2-.57,4.54l-24.91,14.38C1565.92,1307.79,1562.4,1307.94,1560.38,1306.77Z" transform="translate(-52.26 -343.4)"/><path class="cls-2" d="M1599.2,1329.18l-25.14-14.51c-2-1.17-1.77-3.2.57-4.55l24.9-14.38c2.33-1.34,5.86-1.49,7.88-.32l25.14,14.51c2,1.17,1.76,3.2-.57,4.55l-24.91,14.38C1604.74,1330.2,1601.22,1330.35,1599.2,1329.18Z" transform="translate(-52.26 -343.4)"/><path class="cls-2" d="M1638,1351.6l-25.14-14.52c-2-1.16-1.76-3.2.57-4.54l24.91-14.38c2.33-1.35,5.85-1.49,7.87-.33l25.14,14.51c2,1.17,1.76,3.21-.57,4.55l-24.9,14.38C1643.56,1352.62,1640,1352.76,1638,1351.6Z" transform="translate(-52.26 -343.4)"/><path class="cls-2" d="M1676.84,1374l-25.14-14.51c-2-1.17-1.76-3.2.57-4.55l24.91-14.38c2.33-1.34,5.85-1.49,7.87-.33l25.14,14.52c2,1.16,1.77,3.2-.56,4.54l-24.91,14.39C1682.39,1375,1678.86,1375.18,1676.84,1374Z" transform="translate(-52.26 -343.4)"/><path class="cls-2" d="M1307,1116.85l-25.14-14.52c-2-1.16-1.76-3.2.57-4.54l24.91-14.38c2.33-1.35,5.85-1.5,7.87-.33l25.14,14.51c2,1.17,1.77,3.2-.56,4.55l-24.91,14.38C1312.55,1117.87,1309,1118,1307,1116.85Z" transform="translate(-52.26 -343.4)"/><path class="cls-2" d="M1268.37,1094.54,1243.23,1080c-2-1.16-1.76-3.2.57-4.55l24.91-14.38c2.33-1.34,5.85-1.49,7.87-.32l25.14,14.51c2,1.17,1.77,3.2-.56,4.55l-24.91,14.38C1273.92,1095.56,1270.39,1095.71,1268.37,1094.54Z" transform="translate(-52.26 -343.4)"/><path class="cls-2" d="M1229.74,1072.24l-25.13-14.51c-2-1.17-1.77-3.2.56-4.55l24.91-14.38c2.33-1.34,5.86-1.49,7.87-.33l25.14,14.52c2,1.16,1.77,3.2-.56,4.55l-24.91,14.38C1235.29,1073.26,1231.76,1073.41,1229.74,1072.24Z" transform="translate(-52.26 -343.4)"/><path class="cls-2" d="M1191.12,1049.94,1166,1035.43c-2-1.17-1.77-3.2.56-4.55l24.91-14.38c2.33-1.35,5.86-1.49,7.88-.33l25.13,14.52c2,1.16,1.77,3.2-.56,4.54L1199,1049.61C1196.66,1051,1193.13,1051.11,1191.12,1049.94Z" transform="translate(-52.26 -343.4)"/><path class="cls-2" d="M1230.84,1027l-25.14-14.52c-2-1.16-1.77-3.2.56-4.54l8.24-4.76c2.33-1.34,5.85-1.49,7.87-.32l25.14,14.51c2,1.16,1.77,3.2-.56,4.55l-8.24,4.75C1236.38,1028,1232.86,1028.17,1230.84,1027Z" transform="translate(-52.26 -343.4)"/><path class="cls-2" d="M1281.25,1056.11l-25.14-14.51c-2-1.17-1.77-3.2.56-4.55l8.24-4.75c2.33-1.35,5.86-1.49,7.87-.33l25.14,14.51c2,1.17,1.77,3.2-.56,4.55l-8.24,4.75C1286.79,1057.13,1283.27,1057.28,1281.25,1056.11Z" transform="translate(-52.26 -343.4)"/><path class="cls-2" d="M1319.72,1078.32l-25.14-14.51c-2-1.17-1.77-3.2.56-4.55l8.24-4.75c2.33-1.35,5.85-1.5,7.87-.33l25.14,14.51c2,1.17,1.77,3.2-.56,4.55l-8.24,4.75C1325.26,1079.34,1321.73,1079.49,1319.72,1078.32Z" transform="translate(-52.26 -343.4)"/><path class="cls-2" d="M1358.18,1100.53,1333.05,1086c-2-1.17-1.77-3.2.56-4.55l8.23-4.75c2.34-1.35,5.86-1.5,7.88-.33l25.14,14.51c2,1.17,1.76,3.2-.57,4.55l-8.23,4.75C1363.73,1101.55,1360.2,1101.7,1358.18,1100.53Z" transform="translate(-52.26 -343.4)"/><path class="cls-2" d="M1396.65,1122.74l-25.14-14.51c-2-1.17-1.76-3.21.57-4.55l8.23-4.76c2.33-1.34,5.86-1.49,7.88-.32l25.14,14.51c2,1.17,1.76,3.2-.57,4.55l-8.23,4.75C1402.2,1123.76,1398.67,1123.9,1396.65,1122.74Z" transform="translate(-52.26 -343.4)"/><path class="cls-2" d="M1611.41,1246.73l-25.14-14.51c-2-1.17-1.76-3.2.57-4.55l8.23-4.75c2.33-1.35,5.86-1.49,7.88-.33l25.14,14.51c2,1.17,1.76,3.21-.57,4.55l-8.23,4.76C1617,1247.75,1613.43,1247.9,1611.41,1246.73Z" transform="translate(-52.26 -343.4)"/><path class="cls-2" d="M1649.88,1268.94l-25.14-14.51c-2-1.17-1.76-3.2.57-4.55l8.23-4.75c2.33-1.35,5.86-1.5,7.88-.33l25.13,14.51c2,1.17,1.77,3.21-.56,4.55l-8.23,4.75C1655.42,1270,1651.9,1270.11,1649.88,1268.94Z" transform="translate(-52.26 -343.4)"/><path class="cls-2" d="M1688.35,1291.15l-25.14-14.51c-2-1.17-1.77-3.2.56-4.55l8.24-4.75c2.33-1.35,5.86-1.5,7.87-.33l25.14,14.51c2,1.17,1.77,3.2-.56,4.55l-8.24,4.75C1693.89,1292.17,1690.37,1292.32,1688.35,1291.15Z" transform="translate(-52.26 -343.4)"/><path class="cls-2" d="M1726.82,1313.36l-25.14-14.51c-2-1.17-1.77-3.2.56-4.55l8.24-4.75c2.33-1.35,5.85-1.5,7.87-.33l25.14,14.51c2,1.17,1.77,3.2-.56,4.55l-8.24,4.75C1732.36,1314.38,1728.84,1314.53,1726.82,1313.36Z" transform="translate(-52.26 -343.4)"/><path class="cls-2" d="M1345.82,1139.26l-25.13-14.51c-2-1.17-1.77-3.2.56-4.55l24.91-14.38c2.33-1.35,5.86-1.49,7.87-.33l25.14,14.52c2,1.16,1.77,3.2-.56,4.54l-24.91,14.38C1351.37,1140.28,1347.84,1140.43,1345.82,1139.26Z" transform="translate(-52.26 -343.4)"/><path class="cls-2" d="M1384.65,1161.68l-25.14-14.52c-2-1.16-1.77-3.2.56-4.55l24.91-14.38c2.33-1.34,5.86-1.49,7.88-.32l25.13,14.51c2,1.17,1.77,3.2-.56,4.55l-24.91,14.38C1390.19,1162.69,1386.66,1162.84,1384.65,1161.68Z" transform="translate(-52.26 -343.4)"/><path class="cls-2" d="M1423.47,1184.09l-25.14-14.51c-2-1.17-1.77-3.21.56-4.55l24.91-14.38c2.33-1.35,5.86-1.49,7.88-.33l25.14,14.52c2,1.16,1.76,3.2-.57,4.54l-24.91,14.38C1429,1185.11,1425.49,1185.25,1423.47,1184.09Z" transform="translate(-52.26 -343.4)"/><path class="cls-2" d="M1462.29,1206.5,1437.15,1192c-2-1.17-1.76-3.2.57-4.55l24.91-14.38c2.33-1.34,5.85-1.49,7.87-.32l25.14,14.51c2,1.16,1.76,3.2-.57,4.55l-24.9,14.38C1467.83,1207.52,1464.31,1207.67,1462.29,1206.5Z" transform="translate(-52.26 -343.4)"/><path class="cls-2" d="M1501.11,1228.92,1476,1214.4c-2-1.16-1.76-3.2.57-4.54l24.91-14.38c2.33-1.35,5.85-1.5,7.87-.33l25.14,14.51c2,1.17,1.77,3.2-.56,4.55L1509,1228.59C1506.66,1229.94,1503.13,1230.08,1501.11,1228.92Z" transform="translate(-52.26 -343.4)"/><path class="cls-2" d="M1539.93,1251.33l-25.13-14.51c-2-1.17-1.77-3.2.56-4.55l24.91-14.38c2.33-1.35,5.86-1.49,7.87-.33l25.14,14.52c2,1.16,1.77,3.2-.56,4.54L1547.81,1251C1545.48,1252.35,1542,1252.5,1539.93,1251.33Z" transform="translate(-52.26 -343.4)"/><path class="cls-2" d="M1578.76,1273.74l-25.14-14.51c-2-1.16-1.77-3.2.56-4.55l24.91-14.38c2.33-1.34,5.86-1.49,7.88-.32l25.13,14.51c2,1.17,1.77,3.2-.56,4.55l-24.91,14.38C1584.3,1274.76,1580.77,1274.91,1578.76,1273.74Z" transform="translate(-52.26 -343.4)"/><path class="cls-2" d="M1617.58,1296.16l-25.14-14.52c-2-1.16-1.77-3.2.57-4.54l24.9-14.38c2.33-1.35,5.86-1.49,7.88-.33l25.14,14.52c2,1.16,1.76,3.2-.57,4.54l-24.91,14.38C1623.12,1297.18,1619.6,1297.32,1617.58,1296.16Z" transform="translate(-52.26 -343.4)"/><path class="cls-2" d="M1656.4,1318.57l-25.14-14.51c-2-1.17-1.76-3.2.57-4.55l24.91-14.38c2.33-1.34,5.85-1.49,7.87-.33l25.14,14.52c2,1.16,1.76,3.2-.57,4.55l-24.9,14.38C1661.94,1319.59,1658.42,1319.74,1656.4,1318.57Z" transform="translate(-52.26 -343.4)"/><path class="cls-2" d="M1123.87,1142l-74-42.75c-2-1.16-1.77-3.2.56-4.54l24.91-14.38c2.33-1.35,5.86-1.5,7.87-.33l74,42.74c2,1.17,1.77,3.21-.56,4.55l-24.91,14.38C1129.42,1143.05,1125.89,1143.19,1123.87,1142Z" transform="translate(-52.26 -343.4)"/><path class="cls-2" d="M1600.81,1417.39l-74-42.75c-2-1.16-1.76-3.2.57-4.54l24.91-14.38c2.33-1.35,5.85-1.5,7.87-.33l74,42.75c2,1.16,1.76,3.2-.57,4.54l-24.91,14.38C1606.35,1418.41,1602.83,1418.55,1600.81,1417.39Z" transform="translate(-52.26 -343.4)"/><path class="cls-2" d="M1445.56,1377.26l-25.14-14.51c-2-1.17-1.77-3.2.56-4.55l29.67-17.13c2.34-1.35,5.86-1.49,7.88-.33l25.14,14.52c2,1.16,1.76,3.2-.57,4.54l-29.67,17.14C1451.1,1378.28,1447.57,1378.43,1445.56,1377.26Z" transform="translate(-52.26 -343.4)"/><path class="cls-2" d="M1163.63,1214.49l-40.21-23.21c-2-1.17-1.76-3.2.57-4.55l29.67-17.13c2.33-1.34,5.86-1.49,7.88-.32l40.2,23.21c2,1.16,1.77,3.2-.56,4.54l-29.68,17.14C1169.17,1215.51,1165.65,1215.66,1163.63,1214.49Z" transform="translate(-52.26 -343.4)"/><path class="cls-2" d="M1408.15,1355.67l-40.2-23.22c-2-1.16-1.77-3.2.56-4.54l29.67-17.13c2.33-1.35,5.86-1.5,7.88-.33l40.2,23.21c2,1.17,1.77,3.2-.56,4.55L1416,1355.34C1413.69,1356.69,1410.17,1356.83,1408.15,1355.67Z" transform="translate(-52.26 -343.4)"/><path class="cls-2" d="M1219.64,1246.83l-40.2-23.21c-2-1.17-1.77-3.2.56-4.55l29.67-17.13c2.34-1.34,5.86-1.49,7.88-.33l40.2,23.22c2,1.16,1.77,3.2-.56,4.54l-29.67,17.13C1225.18,1247.85,1221.66,1248,1219.64,1246.83Z" transform="translate(-52.26 -343.4)"/><path class="cls-2" d="M1217.82,1201.77l174.8,100.92c2.17,1.25,2.17,3.28,0,4.53l-30.26,17.47a8.62,8.62,0,0,1-7.85,0l-174.8-100.91Z" transform="translate(-52.26 -343.4)"/><path class="cls-2" d="M1554.06,1417.9l28,16.17c1.65,1,1.45,2.62-.46,3.73l-12.14,7a7.15,7.15,0,0,1-6.46.27l-28-16.17c-1.65-1-1.45-2.62.46-3.72l12.14-7A7.21,7.21,0,0,1,1554.06,1417.9Z" transform="translate(-52.26 -343.4)"/><path class="cls-2" d="M1514.91,1395.3l28,16.17c1.65,1,1.44,2.62-.47,3.73l-12.14,7a7.13,7.13,0,0,1-6.45.27l-28-16.17c-1.66-1-1.45-2.62.46-3.72l12.14-7A7.19,7.19,0,0,1,1514.91,1395.3Z" transform="translate(-52.26 -343.4)"/><path class="cls-2" d="M1476.09,1372.89l28,16.16c1.66,1,1.45,2.63-.46,3.73l-12.14,7a7.19,7.19,0,0,1-6.45.27l-28-16.17c-1.65-1-1.44-2.62.47-3.73l12.14-7A7.13,7.13,0,0,1,1476.09,1372.89Z" transform="translate(-52.26 -343.4)"/><path class="cls-2" d="M1536.35,1382.92l28,16.17c1.66,1,1.45,2.62-.46,3.73l-12.14,7a7.16,7.16,0,0,1-6.45.26l-28-16.16c-1.65-1-1.44-2.63.47-3.73l12.14-7A7.19,7.19,0,0,1,1536.35,1382.92Z" transform="translate(-52.26 -343.4)"/><polygon class="cls-1" points="1637.44 602.17 1428.32 481.44 1431.01 467.85 1640.13 588.58 1637.44 602.17"/><polygon class="cls-1" points="1562.54 625.11 1416.57 540.83 1419.26 527.24 1565.23 611.52 1562.54 625.11"/><polygon class="cls-4" points="1548.73 584.05 1422.45 511.14 1425.14 497.54 1551.42 570.45 1548.73 584.05"/><polygon class="cls-5" points="1631.56 631.87 1568.42 595.41 1571.11 581.82 1634.25 618.27 1631.56 631.87"/><polygon class="cls-1" points="1406.06 362.83 1342.91 326.38 1345.6 312.78 1408.74 349.24 1406.06 362.83"/><polygon class="cls-4" points="1399.2 394.43 1336.06 357.97 1338.75 344.38 1401.89 380.83 1399.2 394.43"/><polygon class="cls-1" points="1709.11 832.64 1645.97 796.18 1648.66 782.59 1711.8 819.04 1709.11 832.64"/><polygon class="cls-1" points="1385.5 457.61 1322.36 421.16 1325.05 407.56 1388.19 444.02 1385.5 457.61"/><path class="cls-5" d="M1574.19,810.8a7.87,7.87,0,0,1-11.35,3.49,9.89,9.89,0,0,1-4.07-12.4,7.88,7.88,0,0,1,11.36-3.49A9.89,9.89,0,0,1,1574.19,810.8Z" transform="translate(-52.26 -343.4)"/><path class="cls-4" d="M1601.39,826.5A7.87,7.87,0,0,1,1590,830,9.87,9.87,0,0,1,1586,817.6a7.87,7.87,0,0,1,11.35-3.5A9.89,9.89,0,0,1,1601.39,826.5Z" transform="translate(-52.26 -343.4)"/><path class="cls-1" d="M1628.59,842.2a7.89,7.89,0,0,1-11.36,3.5,9.88,9.88,0,0,1-4.06-12.4,7.87,7.87,0,0,1,11.35-3.5A9.89,9.89,0,0,1,1628.59,842.2Z" transform="translate(-52.26 -343.4)"/><path class="cls-5" d="M1655.78,857.9a7.87,7.87,0,0,1-11.35,3.5,9.89,9.89,0,0,1-4.07-12.4,7.89,7.89,0,0,1,11.36-3.5A9.89,9.89,0,0,1,1655.78,857.9Z" transform="translate(-52.26 -343.4)"/><path class="cls-4" d="M1192.84,1412.59l-158.13-91.29c-4.6-2.66-4-7.3,1.29-10.37l95.43-55.09c5.31-3.07,13.35-3.41,18-.75l158.13,91.3c4.6,2.66,4,7.3-1.29,10.37l-95.43,55.09C1205.49,1414.92,1197.45,1415.25,1192.84,1412.59Z" transform="translate(-52.26 -343.4)"/><path class="cls-2" d="M555.16,1539.17a50.93,50.93,0,0,1-26.34-7.45l-35.73-21.16a4,4,0,0,1,4.12-6.94l35.73,21.17A43,43,0,0,0,598,1484.9l-.76-10.77c-12.54-176.36-35.89-504.61,102.46-540,47.66-12.19,80.29-23.87,104.11-32.39,71-25.42,75.86-24,173.73,49.9a4,4,0,1,1-4.86,6.43c-97.21-73.41-98.5-73-166.16-48.74-24,8.58-56.8,20.33-104.82,32.61-131.82,33.74-108.79,357.63-96.41,531.63l.76,10.78a50.26,50.26,0,0,1-24.24,47.16A50.84,50.84,0,0,1,555.16,1539.17Z" transform="translate(-52.26 -343.4)"/><ellipse class="cls-8" cx="774.27" cy="1185.62" rx="130.87" ry="75.56"/><path class="cls-9" d="M889,1496.64c7.37,3.15,12,11.37,11.4,20.2-.29,4.17-.8,8.05-1.66,9.88-2.35,4.92-10,11.68-22.31,6.83s-39.52-30.46-40.54-47.21C834,1455.2,869.56,1488.35,889,1496.64Z" transform="translate(-52.26 -343.4)"/><path class="cls-9" d="M816.88,1548.13s2.94,17.95,1.51,21.24-10,10.31-22.58,8.8-48.92-14-57-38c-12.53-37.08,70.06,2.78,70.06,2.78Z" transform="translate(-52.26 -343.4)"/><path class="cls-1" d="M781.41,1261.19,778.6,1541.4c.3,9.74,6.68,18,15.27,19.42,1.06.18,2.19.32,3.41.43,8.69.76,13.75-3,16.64-6.89a20.5,20.5,0,0,0,3.75-11.31l3.58-119.61,17.86-107,24.7,189.28c.4,5.12,2.85,9.86,6.79,12.47a18.94,18.94,0,0,0,11.27,3,20.69,20.69,0,0,0,15-7.37,15,15,0,0,0,3.58-10.14l-9.79-113.89L887,1244.63Z" transform="translate(-52.26 -343.4)"/><path class="cls-12" d="M817.7,1010.38l4.43,25.53s.16,8.71-9.56,11.13-12.74-3.87-12.74-3.87l-4.4-28.75Z" transform="translate(-52.26 -343.4)"/><path class="cls-12" d="M765.78,1011.15c16.25,16.18,41.07,17.53,55.43,3s12.83-39.41-3.42-55.6-41.07-17.54-55.43-3S749.53,995,765.78,1011.15Z" transform="translate(-52.26 -343.4)"/><path class="cls-2" d="M816.54,1036.38c.67-.27,41.27-26.41,56.27.94,24.47,44.6,23,188.17,15.3,206.77-7.14,17.21-25,29.9-37.51,37.05-11.13,6.36-23.59,10.25-36.41,10.35s-37-11.17-36.13-27.75c4.06-76.28-2.68-140.57-8.91-203C769.15,1060.79,776.94,1052.41,816.54,1036.38Z" transform="translate(-52.26 -343.4)"/><path class="cls-10" d="M839.11,1316.49l24.7,189.28c.4,5.12,2.85,9.86,6.79,12.47a20.05,20.05,0,0,0,2.11,1.19c-5.13-3.85-20.1-162.72-22.87-180.4S839.11,1316.49,839.11,1316.49Z" transform="translate(-52.26 -343.4)"/><polygon class="cls-12" points="634.47 701.4 612.41 629.15 624.06 624.33 650.06 680.94 634.47 701.4"/><polygon class="cls-12" points="856.82 644.46 840.29 569.24 827.12 569.39 832.07 631.77 856.82 644.46"/><path class="cls-2" d="M769.15,1060.79s-39.63,7.91-64.83-38.24c-2.22-4.06-8.12-4.66-10.46-1.1-4,6.16-9.39,15.59-6.62,25.78,12.27,45.1,78.9,55.07,90.86,81.22S769.15,1060.79,769.15,1060.79Z" transform="translate(-52.26 -343.4)"/><path class="cls-2" d="M842.29,1027s31.38,2.41,35.9-24.76c2.33-14,3-22.34,3.16-27.16a5.48,5.48,0,0,1,6.15-5.32c7.52.93,19.16,3.17,20.73,8.21,2.36,7.52,6.79,44.41-24.21,101C863.71,1116.08,842.29,1027,842.29,1027Z" transform="translate(-52.26 -343.4)"/><path class="cls-12" d="M892.62,912.83l-.3-8.58a17.7,17.7,0,0,0-2.56-8.56l-8.7-14.28-2.27-2.86a6.59,6.59,0,0,0-8.68-1.49l-2,1.26a8.22,8.22,0,0,0-3.83,7.48l4.5,12.2-5.69-1.1a2,2,0,0,0-2.37,1.63h0a2,2,0,0,0,1.23,2.23l9.29,3.74,8.43,11.94Z" transform="translate(-52.26 -343.4)"/><path class="cls-12" d="M664.35,972.93l-2.63-8.17a17.65,17.65,0,0,1-.5-8.92l3.33-16.39,1.16-3.45a6.6,6.6,0,0,1,7.67-4.35l2.31.5a8.23,8.23,0,0,1,6.14,5.74l-.09,13,5-3a2,2,0,0,1,2.79.72h0a2,2,0,0,1-.4,2.51l-7.47,6.68-4.36,15.84Z" transform="translate(-52.26 -343.4)"/><path class="cls-10" d="M787.71,1115.44c3.62,16.48-6.52,144.39,26.48,176-12.69.11-37-11.17-36.13-27.75,2.72-51.15.56-96.86-3-140.27-12.95-16.76-48.55-27.44-70.82-48.94C705.85,1075,784.14,1099.13,787.71,1115.44Z" transform="translate(-52.26 -343.4)"/><path class="cls-4" d="M831.14,1029.17l-5.64-5.79s-9.27,9.47-16.72,11.11c0,0-9,2.54-13.35,2.76l-3.63,10S821.33,1045.14,831.14,1029.17Z" transform="translate(-52.26 -343.4)"/><path class="cls-9" d="M789.56,999.48a4.77,4.77,0,0,1-4.38,0c-2.4-1.27-6.29-10.81-11.28-10.11-7.8,1.09-19.11,17.48-33.18-5.38-7.31-11.88-3-18.3-6.58-25,0,0,1.25,3.66,31.88-15s55.69,4.09,63.46,17.12,12.81,38.5-7.3,52.87c-3.33,2.38-24.79-1.87-25.23-3.66s5.31-4.69,2.06-8.9C796.3,997.86,793.2,997.66,789.56,999.48Z" transform="translate(-52.26 -343.4)"/><path class="cls-10" d="M52.31,1326.38h0V743l231.94-60.7L327,657.58c9.8-5.66,26.93-5,38.25,1.59l39.86,23,123.71-.07-36.63,563.22c.28,3.83-1.86,7.53-6.57,10.25L254.14,1430.23c-9.81,5.66-26.93,5-38.26-1.59L61.63,1339.58C55.1,1335.81,52,1330.93,52.31,1326.38Z" transform="translate(-52.26 -343.4)"/><path class="cls-1" d="M344.72,653.79a44,44,0,0,1,20.51,5.38l39.86,23,123.71-.07v585c.28,3.83-1.86,7.53-6.57,10.25L254.14,1430.23c-4.72,2.72-11.12,4-17.76,3.79l-2.76-588.65Z" transform="translate(-52.26 -343.4)"/><path class="cls-2" d="M251.67,1431.43c-8.45,3.62-20.68,3.42-30.57-.35V838.41h30.57Z" transform="translate(-52.26 -343.4)"/><path class="cls-1" d="M254.14,845.43,522.23,692.56c9.8-5.66,8.57-15.54-2.75-22.08L365.23,581.42c-11.32-6.54-28.45-7.25-38.25-1.58L58.88,732.7c-9.8,5.67-8.57,15.55,2.75,22.09l154.25,89.06C227.21,850.38,244.33,851.09,254.14,845.43Z" transform="translate(-52.26 -343.4)"/><path class="cls-13" d="M61.63,743.94,215.88,833c11.33,6.54,28.45,7.25,38.26,1.59L522.23,681.72a14.8,14.8,0,0,0,4.89-4.34c3.37,5.42,1.84,11.3-4.89,15.18L254.14,845.43c-9.81,5.66-26.93,5-38.26-1.58L61.63,754.79C52.83,749.71,50.16,742.62,54,737A21.35,21.35,0,0,0,61.63,743.94Z" transform="translate(-52.26 -343.4)"/><path class="cls-9" d="M246.55,783.48,425,680c4.59-2.65,4-7.27-1.28-10.33L351.57,628c-5.29-3.06-13.31-3.39-17.9-.74L155.18,730.73c-4.58,2.65-4,7.27,1.29,10.33l72.18,41.68C234,785.79,242,786.13,246.55,783.48Z" transform="translate(-52.26 -343.4)"/><path class="cls-1" d="M342.91,684.66l10.35-6c.63-.37.55-1-.18-1.43l-10-5.77a2.74,2.74,0,0,0-2.47-.1l-10.35,6c-.63.37-.55,1,.18,1.43l10,5.77A2.74,2.74,0,0,0,342.91,684.66Z" transform="translate(-52.26 -343.4)"/><path class="cls-5" d="M308.36,704.53l10.34-6c.64-.37.56-1-.18-1.43l-10-5.77a2.76,2.76,0,0,0-2.48-.1l-10.34,6c-.64.37-.56,1,.18,1.43l10,5.77A2.79,2.79,0,0,0,308.36,704.53Z" transform="translate(-52.26 -343.4)"/><path class="cls-1" d="M273.81,724.4l10.34-6c.63-.37.55-1-.18-1.43l-10-5.77a2.74,2.74,0,0,0-2.47-.1l-10.35,6c-.63.36-.55,1,.18,1.43l10,5.76A2.76,2.76,0,0,0,273.81,724.4Z" transform="translate(-52.26 -343.4)"/><path class="cls-1" d="M239.25,744.27l10.34-6c.64-.36.56-1-.17-1.43l-10-5.76A2.73,2.73,0,0,0,237,731l-10.34,6c-.63.36-.55,1,.18,1.43l10,5.76A2.76,2.76,0,0,0,239.25,744.27Z" transform="translate(-52.26 -343.4)"/><path class="cls-2" d="M425,680l-.21.12c-.35-.24-.67-.5-1.07-.73l-72.19-41.68c-5.29-3.06-13.31-3.39-17.9-.74L155.4,740.32c-4.23-3-4.46-7.15-.22-9.59L333.67,627.26c4.59-2.65,12.61-2.32,17.9.74l72.19,41.68C429.06,672.74,429.63,677.36,425,680Z" transform="translate(-52.26 -343.4)"/><path class="cls-9" d="M185.76,961,84.28,902.92c-5.71-3.3-10.34-12.14-10.34-19.76V846.87c0-7.61,4.63-11.11,10.34-7.82l101.48,58.11c5.72,3.3,10.35,12.14,10.35,19.76v36.29C196.11,960.82,191.48,964.32,185.76,961Z" transform="translate(-52.26 -343.4)"/><path class="cls-4" d="M79.26,838c-1.6,1.5-2.6,4.07-2.6,7.55V881.8c0,7.62,4.63,16.46,10.34,19.76l101.49,58.1a7.47,7.47,0,0,0,5,1.1c-1.9,1.78-4.65,2-7.75.26L84.28,902.92c-5.71-3.3-10.34-12.14-10.34-19.76V846.87C73.94,841.7,76.1,838.5,79.26,838Z" transform="translate(-52.26 -343.4)"/><path class="cls-10" d="M155.24,921.6l-9.31-5.37a5.42,5.42,0,0,1-2.25-4.31V902c0-1.66,1-2.43,2.25-1.71l9.31,5.38a5.36,5.36,0,0,1,2.26,4.3v9.95C157.5,921.56,156.49,922.32,155.24,921.6Z" transform="translate(-52.26 -343.4)"/><path class="cls-4" d="M124.11,903.63l-9.31-5.38a5.38,5.38,0,0,1-2.25-4.3V884c0-1.66,1-2.42,2.25-1.7l9.31,5.37a5.4,5.4,0,0,1,2.26,4.31v9.94C126.37,903.58,125.36,904.35,124.11,903.63Z" transform="translate(-52.26 -343.4)"/><path class="cls-9" d="M185.76,1223.28,84.28,1165.17c-5.71-3.3-10.34-12.14-10.34-19.76v-36.29c0-7.61,4.63-11.11,10.34-7.82l101.48,58.11c5.72,3.3,10.35,12.14,10.35,19.76v36.29C196.11,1223.07,191.48,1226.57,185.76,1223.28Z" transform="translate(-52.26 -343.4)"/><path class="cls-4" d="M79.26,1100.21c-1.6,1.5-2.6,4.07-2.6,7.55v36.29c0,7.62,4.63,16.46,10.34,19.76l101.49,58.1a7.47,7.47,0,0,0,5,1.1c-1.9,1.79-4.65,2-7.75.27L84.28,1165.17c-5.71-3.3-10.34-12.14-10.34-19.76v-36.29C73.94,1104,76.1,1100.75,79.26,1100.21Z" transform="translate(-52.26 -343.4)"/><path class="cls-5" d="M155.24,1183.85l-9.31-5.37a5.42,5.42,0,0,1-2.25-4.31v-9.94c0-1.66,1-2.43,2.25-1.71l9.31,5.38a5.38,5.38,0,0,1,2.26,4.3v10C157.5,1183.81,156.49,1184.57,155.24,1183.85Z" transform="translate(-52.26 -343.4)"/><path class="cls-4" d="M124.11,1165.88l-9.31-5.38a5.38,5.38,0,0,1-2.25-4.3v-10c0-1.66,1-2.42,2.25-1.7l9.31,5.37a5.4,5.4,0,0,1,2.26,4.31v10C126.37,1165.83,125.36,1166.6,124.11,1165.88Z" transform="translate(-52.26 -343.4)"/><path class="cls-9" d="M185.76,1354.4,84.28,1296.3c-5.71-3.3-10.34-12.15-10.34-19.76v-36.29c0-7.62,4.63-11.12,10.34-7.82l101.48,58.1c5.72,3.3,10.35,12.15,10.35,19.76v36.29C196.11,1354.2,191.48,1357.7,185.76,1354.4Z" transform="translate(-52.26 -343.4)"/><path class="cls-4" d="M79.26,1231.34c-1.6,1.5-2.6,4.06-2.6,7.55v36.29c0,7.61,4.63,16.46,10.34,19.75L188.49,1353a7.4,7.4,0,0,0,5,1.09c-1.9,1.79-4.65,2.06-7.75.27L84.28,1296.3c-5.71-3.3-10.34-12.15-10.34-19.76v-36.29C73.94,1235.08,76.1,1231.87,79.26,1231.34Z" transform="translate(-52.26 -343.4)"/><path class="cls-10" d="M155.24,1315l-9.31-5.38a5.41,5.41,0,0,1-2.25-4.3v-10c0-1.66,1-2.42,2.25-1.7l9.31,5.37a5.4,5.4,0,0,1,2.26,4.31v9.94C157.5,1314.93,156.49,1315.69,155.24,1315Z" transform="translate(-52.26 -343.4)"/><path class="cls-4" d="M124.11,1297l-9.31-5.37a5.42,5.42,0,0,1-2.25-4.31v-9.94c0-1.66,1-2.42,2.25-1.7l9.31,5.37a5.4,5.4,0,0,1,2.26,4.31v9.94C126.37,1297,125.36,1297.72,124.11,1297Z" transform="translate(-52.26 -343.4)"/><path class="cls-9" d="M185.76,1092.15,84.28,1034c-5.71-3.29-10.34-12.14-10.34-19.75V978c0-7.62,4.63-11.12,10.34-7.82l101.48,58.1c5.72,3.3,10.35,12.15,10.35,19.76v36.29C196.11,1092,191.48,1095.45,185.76,1092.15Z" transform="translate(-52.26 -343.4)"/><path class="cls-4" d="M79.26,969.08c-1.6,1.51-2.6,4.07-2.6,7.55v36.3c0,7.61,4.63,16.46,10.34,19.75l101.49,58.11a7.4,7.4,0,0,0,5,1.09c-1.9,1.79-4.65,2.06-7.75.27L84.28,1034c-5.71-3.29-10.34-12.14-10.34-19.75V978C73.94,972.83,76.1,969.62,79.26,969.08Z" transform="translate(-52.26 -343.4)"/><path class="cls-10" d="M155.24,1052.73l-9.31-5.38a5.42,5.42,0,0,1-2.25-4.31v-9.94c0-1.66,1-2.42,2.25-1.7l9.31,5.37a5.4,5.4,0,0,1,2.26,4.31V1051C157.5,1052.68,156.49,1053.44,155.24,1052.73Z" transform="translate(-52.26 -343.4)"/><path class="cls-4" d="M124.11,1034.75l-9.31-5.37a5.42,5.42,0,0,1-2.25-4.31v-9.94c0-1.66,1-2.42,2.25-1.7l9.31,5.37a5.4,5.4,0,0,1,2.26,4.31v9.94C126.37,1034.71,125.36,1035.47,124.11,1034.75Z" transform="translate(-52.26 -343.4)"/><path class="cls-2" d="M273.66,923.87,507.8,788.7c5.24-3,9.49-11.15,9.49-18.13V725.92c0-7-4.25-10.2-9.49-7.17L273.66,853.93c-5.24,3-9.48,11.14-9.48,18.13V916.7C264.18,923.69,268.42,926.9,273.66,923.87Z" transform="translate(-52.26 -343.4)"/><path class="cls-14" d="M280.39,908.22,501.08,780.8c2.66-1.53,4.81-5.65,4.81-9.19V738c0-3.54-2.15-5.17-4.81-3.64L280.39,861.82c-2.66,1.53-4.82,5.65-4.82,9.2v33.56C275.57,908.13,277.73,909.75,280.39,908.22Z" transform="translate(-52.26 -343.4)"/><path class="cls-1" d="M455.08,790.39l32.94-19c2.58-1.49,4.68-5.49,4.68-8.93h0c0-3.44-2.1-5-4.68-3.53l-32.94,19c-2.58,1.49-4.67,5.49-4.67,8.94h0C450.41,790.3,452.5,791.88,455.08,790.39Z" transform="translate(-52.26 -343.4)"/><path class="cls-9" d="M427,800.36c0,3.44,2.41,4.84,5.4,3.12a11.93,11.93,0,0,0,5.39-9.35c0-3.45-2.41-4.84-5.39-3.12A11.91,11.91,0,0,0,427,800.36Z" transform="translate(-52.26 -343.4)"/><path class="cls-9" d="M408,811.36c0,3.44,2.42,4.83,5.4,3.11a11.94,11.94,0,0,0,5.4-9.35c0-3.44-2.42-4.84-5.4-3.11A11.92,11.92,0,0,0,408,811.36Z" transform="translate(-52.26 -343.4)"/><path class="cls-1" d="M388.93,822.35c0,3.44,2.42,4.84,5.4,3.12a11.94,11.94,0,0,0,5.4-9.35c0-3.45-2.42-4.84-5.4-3.12A11.94,11.94,0,0,0,388.93,822.35Z" transform="translate(-52.26 -343.4)"/><path class="cls-9" d="M369.89,833.34c0,3.45,2.42,4.84,5.4,3.12a11.93,11.93,0,0,0,5.39-9.35c0-3.44-2.41-4.84-5.39-3.12A12,12,0,0,0,369.89,833.34Z" transform="translate(-52.26 -343.4)"/><path class="cls-9" d="M289.67,889.53l11.09-6.41a7.16,7.16,0,0,0,3-5.73V865.65c0-2.21-1.34-3.22-3-2.26l-11.09,6.4a7.18,7.18,0,0,0-3,5.73v11.74C286.67,889.47,288,890.49,289.67,889.53Z" transform="translate(-52.26 -343.4)"/><path class="cls-2" d="M273.66,1002.6,507.8,867.42c5.24-3,9.49-11.14,9.49-18.13V804.65c0-7-4.25-10.2-9.49-7.17L273.66,932.65c-5.24,3-9.48,11.15-9.48,18.13v44.65C264.18,1002.42,268.42,1005.63,273.66,1002.6Z" transform="translate(-52.26 -343.4)"/><path class="cls-14" d="M280.39,987,501.08,859.53c2.66-1.53,4.81-5.65,4.81-9.2V816.77c0-3.55-2.15-5.17-4.81-3.64L280.39,940.55c-2.66,1.53-4.82,5.65-4.82,9.19v33.57C275.57,986.85,277.73,988.48,280.39,987Z" transform="translate(-52.26 -343.4)"/><path class="cls-1" d="M455.08,869.12l32.94-19c2.58-1.49,4.68-5.49,4.68-8.93h0c0-3.44-2.1-5-4.68-3.53l-32.94,19c-2.58,1.49-4.67,5.49-4.67,8.93h0C450.41,869,452.5,870.61,455.08,869.12Z" transform="translate(-52.26 -343.4)"/><path class="cls-4" d="M427,879.09c0,3.44,2.41,4.84,5.4,3.12a11.94,11.94,0,0,0,5.39-9.35c0-3.45-2.41-4.84-5.39-3.12A11.91,11.91,0,0,0,427,879.09Z" transform="translate(-52.26 -343.4)"/><path class="cls-9" d="M408,890.08c0,3.45,2.42,4.84,5.4,3.12a11.94,11.94,0,0,0,5.4-9.35c0-3.44-2.42-4.84-5.4-3.12A11.94,11.94,0,0,0,408,890.08Z" transform="translate(-52.26 -343.4)"/><path class="cls-1" d="M388.93,901.08c0,3.44,2.42,4.84,5.4,3.11a11.92,11.92,0,0,0,5.4-9.35c0-3.44-2.42-4.83-5.4-3.11A11.94,11.94,0,0,0,388.93,901.08Z" transform="translate(-52.26 -343.4)"/><path class="cls-9" d="M369.89,912.07c0,3.45,2.42,4.84,5.4,3.12a11.93,11.93,0,0,0,5.39-9.35c0-3.44-2.41-4.84-5.39-3.12A11.94,11.94,0,0,0,369.89,912.07Z" transform="translate(-52.26 -343.4)"/><path class="cls-9" d="M289.67,968.26l11.09-6.41a7.16,7.16,0,0,0,3-5.73V944.38c0-2.21-1.34-3.22-3-2.27l-11.09,6.41a7.18,7.18,0,0,0-3,5.73V966C286.67,968.2,288,969.21,289.67,968.26Z" transform="translate(-52.26 -343.4)"/><path class="cls-2" d="M273.66,1081.33,507.8,946.15c5.24-3,9.49-11.14,9.49-18.13V883.38c0-7-4.25-10.2-9.49-7.18L273.66,1011.38c-5.24,3-9.48,11.14-9.48,18.13v44.65C264.18,1081.14,268.42,1084.36,273.66,1081.33Z" transform="translate(-52.26 -343.4)"/><path class="cls-14" d="M280.39,1065.68,501.08,938.26c2.66-1.54,4.81-5.65,4.81-9.2V895.5c0-3.55-2.15-5.18-4.81-3.64L280.39,1019.27c-2.66,1.54-4.82,5.66-4.82,9.2V1062C275.57,1065.58,277.73,1067.21,280.39,1065.68Z" transform="translate(-52.26 -343.4)"/><path class="cls-1" d="M455.08,947.84l32.94-19c2.58-1.49,4.68-5.49,4.68-8.93h0c0-3.44-2.1-5-4.68-3.54l-32.94,19c-2.58,1.49-4.67,5.49-4.67,8.93h0C450.41,947.75,452.5,949.34,455.08,947.84Z" transform="translate(-52.26 -343.4)"/><path class="cls-4" d="M427,957.82c0,3.44,2.41,4.83,5.4,3.11a11.91,11.91,0,0,0,5.39-9.35c0-3.44-2.41-4.83-5.39-3.11A11.9,11.9,0,0,0,427,957.82Z" transform="translate(-52.26 -343.4)"/><path class="cls-9" d="M408,968.81c0,3.44,2.42,4.84,5.4,3.12a11.94,11.94,0,0,0,5.4-9.35c0-3.44-2.42-4.84-5.4-3.12A11.94,11.94,0,0,0,408,968.81Z" transform="translate(-52.26 -343.4)"/><path class="cls-1" d="M388.93,979.81c0,3.44,2.42,4.83,5.4,3.11a11.94,11.94,0,0,0,5.4-9.35c0-3.44-2.42-4.84-5.4-3.11A11.92,11.92,0,0,0,388.93,979.81Z" transform="translate(-52.26 -343.4)"/><path class="cls-9" d="M369.89,990.8c0,3.44,2.42,4.84,5.4,3.12a11.93,11.93,0,0,0,5.39-9.35c0-3.45-2.41-4.84-5.39-3.12A11.94,11.94,0,0,0,369.89,990.8Z" transform="translate(-52.26 -343.4)"/><path class="cls-9" d="M289.67,1047l11.09-6.4a7.18,7.18,0,0,0,3-5.73v-11.74c0-2.21-1.34-3.23-3-2.27l-11.09,6.41a7.16,7.16,0,0,0-3,5.73v11.74C286.67,1046.93,288,1047.94,289.67,1047Z" transform="translate(-52.26 -343.4)"/><path class="cls-2" d="M273.66,1160.06,507.8,1024.88c5.24-3,9.49-11.14,9.49-18.13V962.11c0-7-4.25-10.2-9.49-7.18L273.66,1090.11c-5.24,3-9.48,11.14-9.48,18.13v44.64C264.18,1159.87,268.42,1163.08,273.66,1160.06Z" transform="translate(-52.26 -343.4)"/><path class="cls-14" d="M280.39,1144.4,501.08,1017c2.66-1.54,4.81-5.66,4.81-9.2V974.23c0-3.55-2.15-5.18-4.81-3.64L280.39,1098c-2.66,1.54-4.82,5.66-4.82,9.2v33.56C275.57,1144.31,277.73,1145.94,280.39,1144.4Z" transform="translate(-52.26 -343.4)"/><path class="cls-1" d="M455.08,1026.57l32.94-19c2.58-1.49,4.68-5.49,4.68-8.93h0c0-3.45-2.1-5-4.68-3.54l-32.94,19c-2.58,1.49-4.67,5.49-4.67,8.93h0C450.41,1026.48,452.5,1028.06,455.08,1026.57Z" transform="translate(-52.26 -343.4)"/><path class="cls-9" d="M427,1036.54c0,3.45,2.41,4.84,5.4,3.12a11.93,11.93,0,0,0,5.39-9.35c0-3.44-2.41-4.84-5.39-3.12A11.93,11.93,0,0,0,427,1036.54Z" transform="translate(-52.26 -343.4)"/><path class="cls-9" d="M408,1047.54c0,3.44,2.42,4.84,5.4,3.11a11.92,11.92,0,0,0,5.4-9.34c0-3.45-2.42-4.84-5.4-3.12A11.94,11.94,0,0,0,408,1047.54Z" transform="translate(-52.26 -343.4)"/><path class="cls-1" d="M388.93,1058.53c0,3.45,2.42,4.84,5.4,3.12a11.94,11.94,0,0,0,5.4-9.35c0-3.44-2.42-4.84-5.4-3.12A12,12,0,0,0,388.93,1058.53Z" transform="translate(-52.26 -343.4)"/><path class="cls-9" d="M369.89,1069.53c0,3.44,2.42,4.84,5.4,3.11a11.91,11.91,0,0,0,5.39-9.35c0-3.44-2.41-4.83-5.39-3.11A11.94,11.94,0,0,0,369.89,1069.53Z" transform="translate(-52.26 -343.4)"/><path class="cls-1" d="M289.67,1125.71l11.09-6.4a7.19,7.19,0,0,0,3-5.73v-11.74c0-2.21-1.34-3.23-3-2.27l-11.09,6.4a7.2,7.2,0,0,0-3,5.74v11.73C286.67,1125.65,288,1126.67,289.67,1125.71Z" transform="translate(-52.26 -343.4)"/><path class="cls-2" d="M273.66,1238.78,507.8,1103.61c5.24-3,9.49-11.14,9.49-18.13v-44.65c0-7-4.25-10.2-9.49-7.17L273.66,1168.84c-5.24,3-9.48,11.14-9.48,18.13v44.64C264.18,1238.6,268.42,1241.81,273.66,1238.78Z" transform="translate(-52.26 -343.4)"/><path class="cls-14" d="M280.39,1223.13l220.69-127.42c2.66-1.53,4.81-5.65,4.81-9.19V1053c0-3.54-2.15-5.17-4.81-3.64L280.39,1176.73c-2.66,1.53-4.82,5.65-4.82,9.2v33.56C275.57,1223,277.73,1224.67,280.39,1223.13Z" transform="translate(-52.26 -343.4)"/><path class="cls-1" d="M455.08,1105.3l32.94-19c2.58-1.49,4.68-5.48,4.68-8.93h0c0-3.44-2.1-5-4.68-3.53l-32.94,19c-2.58,1.49-4.67,5.49-4.67,8.94h0C450.41,1105.21,452.5,1106.79,455.08,1105.3Z" transform="translate(-52.26 -343.4)"/><path class="cls-9" d="M427,1115.27c0,3.44,2.41,4.84,5.4,3.12a11.93,11.93,0,0,0,5.39-9.35c0-3.44-2.41-4.84-5.39-3.12A11.91,11.91,0,0,0,427,1115.27Z" transform="translate(-52.26 -343.4)"/><path class="cls-4" d="M408,1126.27c0,3.44,2.42,4.83,5.4,3.11a11.92,11.92,0,0,0,5.4-9.35c0-3.44-2.42-4.83-5.4-3.11A11.92,11.92,0,0,0,408,1126.27Z" transform="translate(-52.26 -343.4)"/><path class="cls-1" d="M388.93,1137.26c0,3.44,2.42,4.84,5.4,3.12a11.94,11.94,0,0,0,5.4-9.35c0-3.44-2.42-4.84-5.4-3.12A11.94,11.94,0,0,0,388.93,1137.26Z" transform="translate(-52.26 -343.4)"/><path class="cls-4" d="M369.89,1148.26c0,3.44,2.42,4.83,5.4,3.11a11.93,11.93,0,0,0,5.39-9.35c0-3.44-2.41-4.84-5.39-3.11A11.92,11.92,0,0,0,369.89,1148.26Z" transform="translate(-52.26 -343.4)"/><path class="cls-1" d="M289.67,1204.44l11.09-6.41a7.16,7.16,0,0,0,3-5.73v-11.73c0-2.21-1.34-3.23-3-2.27l-11.09,6.4a7.19,7.19,0,0,0-3,5.73v11.74C286.67,1204.38,288,1205.4,289.67,1204.44Z" transform="translate(-52.26 -343.4)"/><path class="cls-2" d="M273.66,1317.51,507.8,1182.34c5.24-3,9.49-11.15,9.49-18.13v-44.65c0-7-4.25-10.2-9.49-7.17L273.66,1247.56c-5.24,3-9.48,11.15-9.48,18.13v44.65C264.18,1317.33,268.42,1320.54,273.66,1317.51Z" transform="translate(-52.26 -343.4)"/><path class="cls-14" d="M280.39,1301.86l220.69-127.42c2.66-1.53,4.81-5.65,4.81-9.2v-33.56c0-3.54-2.15-5.17-4.81-3.64L280.39,1255.46c-2.66,1.53-4.82,5.65-4.82,9.2v33.56C275.57,1301.76,277.73,1303.39,280.39,1301.86Z" transform="translate(-52.26 -343.4)"/><path class="cls-1" d="M455.08,1184,488,1165c2.58-1.49,4.68-5.49,4.68-8.93h0c0-3.44-2.1-5-4.68-3.53l-32.94,19c-2.58,1.49-4.67,5.49-4.67,8.93h0C450.41,1183.94,452.5,1185.52,455.08,1184Z" transform="translate(-52.26 -343.4)"/><path class="cls-9" d="M427,1194c0,3.44,2.41,4.84,5.4,3.12a11.94,11.94,0,0,0,5.39-9.35c0-3.45-2.41-4.84-5.39-3.12A11.91,11.91,0,0,0,427,1194Z" transform="translate(-52.26 -343.4)"/><path class="cls-9" d="M408,1205c0,3.45,2.42,4.84,5.4,3.12a11.94,11.94,0,0,0,5.4-9.35c0-3.44-2.42-4.84-5.4-3.12A12,12,0,0,0,408,1205Z" transform="translate(-52.26 -343.4)"/><path class="cls-1" d="M388.93,1216c0,3.44,2.42,4.84,5.4,3.12a12,12,0,0,0,5.4-9.35c0-3.45-2.42-4.84-5.4-3.12A11.94,11.94,0,0,0,388.93,1216Z" transform="translate(-52.26 -343.4)"/><path class="cls-9" d="M369.89,1227c0,3.45,2.42,4.84,5.4,3.12a11.93,11.93,0,0,0,5.39-9.35c0-3.44-2.41-4.84-5.39-3.12A11.94,11.94,0,0,0,369.89,1227Z" transform="translate(-52.26 -343.4)"/><path class="cls-9" d="M289.67,1283.17l11.09-6.41a7.16,7.16,0,0,0,3-5.73v-11.74c0-2.21-1.34-3.22-3-2.26l-11.09,6.4a7.18,7.18,0,0,0-3,5.73v11.74C286.67,1283.11,288,1284.12,289.67,1283.17Z" transform="translate(-52.26 -343.4)"/><path class="cls-2" d="M273.66,1396.24,507.8,1261.06c5.24-3,9.49-11.14,9.49-18.13v-44.64c0-7-4.25-10.2-9.49-7.18L273.66,1326.29c-5.24,3-9.48,11.14-9.48,18.13v44.65C264.18,1396.05,268.42,1399.27,273.66,1396.24Z" transform="translate(-52.26 -343.4)"/><path class="cls-14" d="M280.39,1380.59l220.69-127.42c2.66-1.53,4.81-5.65,4.81-9.2v-33.56c0-3.55-2.15-5.18-4.81-3.64L280.39,1334.19c-2.66,1.53-4.82,5.65-4.82,9.19V1377C275.57,1380.49,277.73,1382.12,280.39,1380.59Z" transform="translate(-52.26 -343.4)"/><path class="cls-1" d="M455.08,1262.76l32.94-19c2.58-1.49,4.68-5.49,4.68-8.93h0c0-3.44-2.1-5-4.68-3.54l-32.94,19c-2.58,1.49-4.67,5.49-4.67,8.93h0C450.41,1262.66,452.5,1264.25,455.08,1262.76Z" transform="translate(-52.26 -343.4)"/><path class="cls-4" d="M421,1277c0,6.5,4.56,9.14,10.2,5.88s10.19-11.15,10.19-17.66-4.56-9.13-10.19-5.88S421,1270.49,421,1277Z" transform="translate(-52.26 -343.4)"/><path class="cls-9" d="M381.56,1300.07c0,3.44,2.41,4.84,5.39,3.11a11.89,11.89,0,0,0,5.4-9.34c0-3.45-2.41-4.84-5.4-3.12A11.93,11.93,0,0,0,381.56,1300.07Z" transform="translate(-52.26 -343.4)"/><path class="cls-1" d="M362.51,1311.06c0,3.45,2.42,4.84,5.4,3.12a11.94,11.94,0,0,0,5.4-9.35c0-3.44-2.42-4.84-5.4-3.12A12,12,0,0,0,362.51,1311.06Z" transform="translate(-52.26 -343.4)"/><path class="cls-9" d="M343.47,1322.06c0,3.44,2.42,4.84,5.4,3.11a11.92,11.92,0,0,0,5.4-9.35c0-3.44-2.42-4.83-5.4-3.11A11.94,11.94,0,0,0,343.47,1322.06Z" transform="translate(-52.26 -343.4)"/><path class="cls-1" d="M289.67,1361.9l11.09-6.41a7.18,7.18,0,0,0,3-5.73V1338c0-2.21-1.34-3.22-3-2.27l-11.09,6.41a7.16,7.16,0,0,0-3,5.73v11.74C286.67,1361.84,288,1362.85,289.67,1361.9Z" transform="translate(-52.26 -343.4)"/><polygon class="cls-8" points="1145.88 253.28 1062.63 205.22 1145.88 157.15 1229.13 205.22 1145.88 253.28"/><polygon class="cls-9" points="1229.13 144.19 1145.88 192.26 1145.88 96.13 1229.13 48.06 1229.13 144.19"/><polygon class="cls-1" points="1145.88 96.13 1062.63 48.06 1145.88 0 1229.13 48.06 1145.88 96.13"/><polygon class="cls-2" points="1145.88 192.26 1062.63 144.19 1062.63 48.06 1145.88 96.13 1145.88 192.26"/><polygon class="cls-4" points="1115.9 140.33 1092.61 126.88 1092.61 100 1115.9 113.44 1115.9 140.33"/></svg>