<svg id="Layer_1" data-name="Layer 1" xmlns="http://www.w3.org/2000/svg" viewBox="0 0 1857.49 425.68"><defs><style>.cls-1{fill:#7be495;}.cls-2{fill:#205072;}.cls-3{fill:#f5b55c;}.cls-4{fill:#f8dc71;}.cls-5{fill:#f6c25c;}.cls-6{fill:#329d9c;}.cls-7{fill:#2c6975;}.cls-8{fill:#015c92;}.cls-9{fill:#2d82b5;}.cls-10{fill:#56c596;}.cls-11{fill:none;stroke:#2c2b2d;stroke-miterlimit:10;stroke-width:0.5px;}.cls-12{fill:#f2a25b;}.cls-13{fill:#2fa7dd;}.cls-14{fill:#2b2b2b;}</style></defs><title>devopslabs_logo</title><rect class="cls-1" x="141.89" y="141.89" width="141.89" height="141.89"/><rect class="cls-2" x="283.79" y="141.89" width="141.89" height="141.89"/><path class="cls-3" d="M354.72,571.2A141.89,141.89,0,0,1,212.83,429.31V571.2Z" transform="translate(-70.93 -287.41)"/><path class="cls-4" d="M212.83,429.31A141.89,141.89,0,0,0,70.93,571.2h141.9Z" transform="translate(-70.93 -287.41)"/><path class="cls-5" d="M70.93,571.2a141.9,141.9,0,0,0,141.9,141.9V571.2Z" transform="translate(-70.93 -287.41)"/><path class="cls-6" d="M496.62,429.31a141.9,141.9,0,0,0-141.9-141.9v141.9Z" transform="translate(-70.93 -287.41)"/><path class="cls-7" d="M354.72,571.2a141.89,141.89,0,0,1,141.9-141.89H354.72Z" transform="translate(-70.93 -287.41)"/><path class="cls-8" d="M496.62,429.31V571.2H638.51A141.89,141.89,0,0,0,496.62,429.31Z" transform="translate(-70.93 -287.41)"/><path class="cls-9" d="M496.62,713.1A141.9,141.9,0,0,0,638.51,571.2H496.62Z" transform="translate(-70.93 -287.41)"/><path class="cls-10" d="M354.72,287.41a141.9,141.9,0,0,0-141.89,141.9H354.72Z" transform="translate(-70.93 -287.41)"/><path class="cls-11" d="M496.62,713.1" transform="translate(-70.93 -287.41)"/><rect class="cls-12" x="141.89" y="283.79" width="141.89" height="141.89"/><rect class="cls-13" x="283.79" y="283.79" width="141.89" height="141.89"/><path class="cls-14" d="M757.32,571.57H718.89V429.14h36c36.58,0,71.32,11.71,71.32,70.5C826.18,557.6,792.68,571.57,757.32,571.57Zm2.47-118H752.6v93.51h7.19c18.7,0,31.65-10.07,31.65-47.47C791.44,461.41,777.67,453.6,759.79,453.6Z" transform="translate(-70.93 -287.41)"/><path class="cls-14" d="M884.34,487.51h49.33v23.43H884.34v36.38h59.4v24.25H850.63V429.14h93.11l-3.5,24.05h-55.9Z" transform="translate(-70.93 -287.41)"/><path class="cls-14" d="M1043.83,429.14h34.53l-41.11,142.43H995.74l-40.9-142.43H990.6l26.51,116.12Z" transform="translate(-70.93 -287.41)"/><path class="cls-14" d="M1139.81,575.07c-37.41,0-56.93-28.57-56.93-74.82,0-45.21,19.52-74.81,56.93-74.81s56.93,28.57,56.93,74.81C1196.74,545.47,1177.22,575.07,1139.81,575.07Zm0-125c-16,0-22.4,15.2-22.4,50.14s6.58,50.15,22.4,50.15c16.44,0,22.4-15.62,22.4-50.15C1162.21,465.31,1155.84,450.11,1139.81,450.11Z" transform="translate(-70.93 -287.41)"/><path class="cls-14" d="M1263.54,524.09h-15.62v47.48h-33.71V429.14H1259c38.84,0,60.83,15.21,60.83,46.45C1319.85,508.68,1297,524.09,1263.54,524.09Zm-3.91-70.9h-11.71v46.65h13.36c15,0,24-7.4,24-24.25C1285.33,460.38,1276.69,453.19,1259.63,453.19Z" transform="translate(-70.93 -287.41)"/><path class="cls-14" d="M1383.57,575.07c-26.93,0-44.4-8.84-56.32-20.56l17.06-18.9A56.33,56.33,0,0,0,1382.74,550c14.19,0,23.64-6.37,23.64-17.47,0-10.28-6-15.21-25.69-21.17-33.5-10.27-46-22.81-46-44.39,0-26.31,24-41.52,53.64-41.52,21.79,0,38.64,6.78,51,18.5l-15.83,18.29a50.89,50.89,0,0,0-32.68-11.92c-12.74,0-21.17,4.73-21.17,14,0,9.05,6.37,12.75,29,19.74,27.13,8.22,43,19.73,43,45.83C1441.53,556.57,1420,575.07,1383.57,575.07Z" transform="translate(-70.93 -287.41)"/><path class="cls-14" d="M1476.05,430h17.68V555.75h64.74l-2.26,15.82h-80.16Z" transform="translate(-70.93 -287.41)"/><path class="cls-14" d="M1604.51,535.4l-11.31,36.17h-17.67L1621.77,430h22.61l46,141.61h-18.5l-11.3-36.17Zm51.38-14.8-23.22-75.43-23.44,75.43Z" transform="translate(-70.93 -287.41)"/><path class="cls-14" d="M1752.69,571.57h-38.23V430h35c24.87,0,50.15,8,50.15,35.77,0,18.29-13,27.74-26.52,30.82,15.83,2.67,32.68,10.69,32.68,34.74C1805.72,562.12,1778.59,571.57,1752.69,571.57Zm.83-127h-21.17v45.63h22.81c16.65,0,26.1-7,26.1-23.43C1781.26,450.51,1770.57,444.55,1753.52,444.55Zm2.87,60.43h-24v51.79h23.43c13.77,0,31-3.9,31-24.87C1786.81,510.32,1773,505,1756.39,505Z" transform="translate(-70.93 -287.41)"/><path class="cls-14" d="M1876.63,573.83c-20.76,0-37.82-6.37-49.74-17.88l10.69-12.12c9.86,9.24,22,15.21,39.25,15.21s32.89-8.43,32.89-26.31c0-13.77-6.58-20.56-30.83-27.54-28.16-8.23-45.63-18.5-45.63-40.91,0-21.37,18.7-36.58,45.83-36.58,19.32,0,33.3,6,45.22,16.24l-10.69,11.51a50.65,50.65,0,0,0-33.91-12.75c-15.62,0-28.36,6.79-28.36,21,0,12.13,8.63,18.29,35.55,26.1,22.2,6.37,41.52,15.62,41.52,42.55C1928.42,556.77,1909.51,573.83,1876.63,573.83Z" transform="translate(-70.93 -287.41)"/></svg>