<svg xmlns="http://www.w3.org/2000/svg" enable-background="new 0 0 64 64" viewBox="0 0 64 64"><path d="M20.2 21.8c0-1.8-2.5-3.3-5.5-3.3-3 0-5.5 1.5-5.5 3.3 0 .1 0 .2 0 .3.1.1.2.1.3.2 1.6.9 3.3 1.3 5.2 1.3 1.9 0 3.7-.5 5.3-1.4 0 0 .1-.1.1-.1C20.2 22 20.2 21.9 20.2 21.8zM31 32.2C31 32.2 31 32.2 31 32.2c-2.5 2.5-3.8 5.8-3.8 9.3 0 3.5 1.4 6.8 3.9 9.3 4.4 4.3 11 5 16.2 1.7.9-.5 1.7-1.2 2.4-1.9.8-.8 1.4-1.7 2-2.6 3-5.2 2.1-11.8-2.2-16-2.6-2.5-5.9-3.8-9.2-3.8C37 28.2 33.6 29.6 31 32.2zM48.8 47.7c0 .5-.1 1-.2 1.5l-.1.3-.2.2c-.2.2-.5.4-.7.6-2.2 1.5-4.6 2.3-7.1 2.3-2.4 0-4.8-.7-6.9-2.1-.1-.1-.2-.1-.3-.2-.2-.2-.5-.4-.7-.6l-.2-.2-.1-.3c-.1-.5-.2-1-.2-1.4 0-3.8 3.7-6.8 8.3-6.8C45 40.9 48.8 43.9 48.8 47.7zM43.3 32c.7.8 1.2 1.8 1.1 2.8 0 1.1-.4 2.1-1.2 2.8-.8.7-1.7 1.1-2.8 1.1 0 0 0 0 0 0-1.1 0-2.1-.4-2.8-1.2-.7-.8-1.2-1.8-1.1-2.8 0-1.1.4-2.1 1.2-2.8.8-.7 1.7-1.2 2.8-1.1C41.6 30.9 42.6 31.3 43.3 32zM14.7 12c.9 0 1.6-.7 1.6-1.6 0-.9-.7-1.6-1.6-1.6-.9 0-1.6.7-1.6 1.6C13.2 11.3 13.9 12 14.7 12z"/><path d="M40.4 36.8C40.4 36.8 40.4 36.8 40.4 36.8c1.1 0 1.9-.8 1.9-1.9 0-.5-.2-1-.5-1.4-.4-.4-.8-.6-1.3-.6 0 0 0 0 0 0-.5 0-1 .2-1.3.5-.4.4-.6.8-.6 1.3C38.5 35.9 39.4 36.7 40.4 36.8zM14.7 16.4c3.5 0 6.4 1.6 7.2 3.9 1.3-1.6 2-3.6 2-5.7 0-5.1-4.1-9.2-9.2-9.2-5.1 0-9.2 4.1-9.2 9.2 0 2.1.7 4.1 2 5.7C8.4 18 11.2 16.4 14.7 16.4zM14.7 6.8c2 0 3.6 1.6 3.6 3.6s-1.6 3.6-3.6 3.6c-2 0-3.6-1.6-3.6-3.6S12.7 6.8 14.7 6.8zM34.2 47.7c0 .2 0 .4.1.6.1.1.3.2.4.4 1.8 1.2 3.7 1.8 5.8 1.8 2.1 0 4.1-.6 5.9-1.9.1-.1.2-.1.2-.2 0-.2.1-.4.1-.6 0-2.6-2.8-4.7-6.2-4.7C37 43 34.2 45.1 34.2 47.7z"/><path d="M40.4 56.6c-3.9 0-7.7-1.5-10.7-4.4-2.9-2.9-4.5-6.7-4.6-10.7 0-4.1 1.5-7.9 4.4-10.8 4.8-4.9 12-5.8 17.8-2.9V-.3H0v63.6h47.3v-8.4C45.1 56.1 42.8 56.6 40.4 56.6zM30.5 5.4h12.8c.6 0 1 .5 1 1s-.5 1-1 1H30.5c-.6 0-1-.5-1-1S29.9 5.4 30.5 5.4zM30.5 13.4h12.8c.6 0 1 .5 1 1s-.5 1-1 1H30.5c-.6 0-1-.5-1-1S29.9 13.4 30.5 13.4zM30.5 21.4h12.8c.6 0 1 .5 1 1 0 .6-.5 1-1 1H30.5c-.6 0-1-.5-1-1C29.4 21.9 29.9 21.4 30.5 21.4zM14.7 3.3C21 3.3 26 8.4 26 14.6c0 3.5-1.6 6.7-4.3 8.9-.2.2-.4.3-.6.4-1.9 1.1-4.1 1.7-6.4 1.7-2.2 0-4.2-.5-6.1-1.6-.1 0-.1-.1-.2-.2-.2-.1-.4-.3-.7-.5-2.7-2.2-4.3-5.4-4.3-8.9C3.4 8.4 8.5 3.3 14.7 3.3zM4.2 31.7h19c.6 0 1 .5 1 1 0 .6-.5 1-1 1h-19c-.6 0-1-.5-1-1C3.1 32.2 3.6 31.7 4.2 31.7zM4.2 39.7H20c.6 0 1 .5 1 1s-.5 1-1 1H4.2c-.6 0-1-.5-1-1S3.6 39.7 4.2 39.7zM4.2 47.7h18c.6 0 1 .5 1 1s-.5 1-1 1h-18c-.6 0-1-.5-1-1S3.6 47.7 4.2 47.7zM26.3 57.8H4.2c-.6 0-1-.5-1-1s.5-1 1-1h22.1c.6 0 1 .5 1 1S26.9 57.8 26.3 57.8zM62.2 59.2l-10-8.1c-.3.3-.5.7-.8 1-.2.3-.5.5-.8.7L59.4 63c1.3 1.3 3.3 1.7 4.2.8.7-.7.6-2.1-.2-3.3C63.1 60 62.7 59.6 62.2 59.2z"/></svg>