<svg xmlns="http://www.w3.org/2000/svg" viewBox="0 0 64 64"><path d="M51.8,12.2A14,14,0,0,0,31.32,31.27c.22.25.44.49.68.73s.48.46.73.68A14,14,0,0,0,51.8,12.2ZM49,29.17a9.82,9.82,0,0,1-2.76,1.95l-.86-1.8a8.13,8.13,0,0,0,2.21-1.56c.21-.22.41-.44.59-.67l1.56,1.25A8.28,8.28,0,0,1,49,29.17Zm2.41-3.88-1.9-.64a8,8,0,0,0-1.92-8.21L49,15A10,10,0,0,1,51.38,25.29Z"/><path d="M24.93,40.49a2,2,0,0,1,0,2.82l-9.19,9.2a2,2,0,0,1-1.42.58,2,2,0,0,1-1.41-.58l-1.42-1.42a2,2,0,0,1,0-2.83l9.2-9.19a2,2,0,0,1,2.82,0h0l7.8-7.81c.22.25.44.49.68.73s.48.46.73.68Z"/></svg>