<?xml version="1.0" encoding="utf-8"?>
<!-- Generator: Adobe Illustrator 23.0.3, SVG Export Plug-In . SVG Version: 6.00 Build 0)  -->
<svg version="1.1" id="Capa_1" xmlns="http://www.w3.org/2000/svg" xmlns:xlink="http://www.w3.org/1999/xlink" x="0px" y="0px"
	 viewBox="0 0 150 65" style="enable-background:new 0 0 150 65;" xml:space="preserve">
<style type="text/css">
	.st0{fill:#39ABDD;}
</style>
<path class="st0" d="M40.3,59.4H28.8c-0.7,0-1.2-0.5-1.2-1.2c0-0.7,0.5-1.2,1.2-1.2h11.4c0.7,0,1.2,0.5,1.2,1.2
	C41.5,58.9,40.9,59.4,40.3,59.4 M47.2,0H22.3C19.1,0,14,2.2,14,8.2v18.5l7.4-7.8V8.2c0-0.5,0-0.9,1-0.9h24.8c0.5,0,0.9,0,1,0.9v45
	H21.4v-6.6L14,54.2v2.5c0,3.2,2.3,8.2,8.3,8.2h24.9c3.2,0,8.3-2.2,8.3-8.2V8.2C55.5,2.2,50.4,0,47.2,0"/>
<path class="st0" d="M13.4,35.4c2.4-2.5,4.8-5,7.1-7.5c3.5-3.7,6.9-7.4,10.4-11c2.5-2.6,6.4-2.1,7.7,1.2c0.8,1.9,0.2,3.6-1.2,5
	c-3.9,4.1-7.8,8.3-11.8,12.5c-2.9,3-5.7,6.1-8.6,9.1c-2.1,2.3-4.7,2.3-6.9,0.2c-3-2.9-6-5.8-8.9-8.8C-1,33.6,0,29.7,3.1,28.7
	c1.6-0.5,3.2-0.3,4.4,0.9c1.7,1.7,3.4,3.4,5.1,5C12.8,34.9,13.1,35.1,13.4,35.4"/>
<path class="st0" d="M67.5,21h2.6V9.8h4.4V7.4H63.1v2.3h4.4V21z M88.2,20.9l-4.2-4.6c2.6-0.5,3.5-2.4,3.5-4.3c0-2.4-1.7-4.5-5-4.5
	c-2.2,0-4.4,0-6.5,0V21h2.6v-4.6h2.5l4,4.6h3.1V20.9z M82.6,9.8c1.6,0,2.4,1.1,2.4,2.2c0,1.1-0.7,2.2-2.4,2.2h-3.9V9.8H82.6z
	 M99.2,7.5v7.8c0,2.3-1.2,3.8-3.4,3.8c-2.1,0-3.6-1.3-3.6-3.8V7.5h-2.6v7.8c0,4.1,2.8,6.1,6.1,6.1c3.5,0,6-2.1,6-6.1V7.5H99.2z
	 M114.8,9.7c-1-2.1-3.3-2.7-5.4-2.7c-2.5,0-5.3,1.2-5.3,4c0,3.1,2.6,3.8,5.4,4.1c1.8,0.2,3.2,0.7,3.2,2c0,1.5-1.5,2-3.2,2
	c-1.7,0-3.3-0.7-3.9-2.2l-2.2,1.1c1,2.5,3.2,3.3,6,3.3c3.1,0,5.8-1.3,5.8-4.3c0-3.2-2.7-4-5.5-4.3c-1.7-0.2-3.1-0.5-3.1-1.7
	c0-1,0.9-1.8,2.8-1.8c1.5,0,2.8,0.7,3.3,1.5L114.8,9.7z M120.8,21h2.6V9.8h4.4V7.4h-11.3v2.3h4.4V21z M135.9,7.4h-2.6V21h2.6V7.4z
	 M147.4,15.9l-6.7-8.4h-2.1V21h2.6v-9.2l7.2,9.2v0h1.6V7.4h-2.6V15.9z"/>
<path class="st0" d="M70.6,35.1h-5.6v-2.2h5.4v-1.7h-5.4v-2.3h5.6v-1.8h-7.5V37h7.5V35.1z M78.9,33.2L74,27.1h-1.5V37h1.9v-6.7
	l5.3,6.7h1.2v-9.9h-1.9V33.2z M85.1,37H87v-8.2h3.2v-1.7h-8.2v1.7h3.2V37z M98.7,35.1h-5.6v-2.2h5.4v-1.7h-5.4v-2.3h5.6v-1.8h-7.5
	V37h7.5V35.1z M109.1,36.8l-3-3.4c1.9-0.4,2.5-1.8,2.5-3.1c0-1.7-1.2-3.3-3.6-3.3c-1.6,0-3.2,0-4.8,0V37h1.9v-3.3h1.8l2.9,3.3h2.2
	V36.8z M105,28.8c1.2,0,1.7,0.8,1.7,1.6c0,0.8-0.5,1.6-1.7,1.6h-2.9v-3.2H105z M111.7,28.8h2.8c2.4,0,2.4,3.5,0,3.5h-2.8V28.8z
	 M114.6,27.1c-1.6,0-3.1,0-4.7,0V37h1.9v-2.9h2.8C119.5,34.1,119.4,27.1,114.6,27.1 M128.4,36.8l-3-3.4c1.9-0.4,2.5-1.8,2.5-3.1
	c0-1.7-1.2-3.3-3.6-3.3c-1.6,0-3.2,0-4.8,0V37h1.9v-3.3h1.8l2.9,3.3h2.2V36.8z M124.3,28.8c1.2,0,1.7,0.8,1.7,1.6
	c0,0.8-0.5,1.6-1.7,1.6h-2.9v-3.2H124.3z M131,27.1h-1.9V37h1.9V27.1z M140.8,28.7c-0.8-1.5-2.4-2-3.9-2c-1.8,0-3.9,0.8-3.9,2.9
	c0,2.2,1.9,2.8,3.9,3c1.3,0.1,2.3,0.5,2.3,1.5c0,1.1-1.1,1.5-2.3,1.5c-1.2,0-2.4-0.5-2.8-1.6l-1.6,0.8c0.7,1.8,2.3,2.4,4.4,2.4
	c2.2,0,4.2-0.9,4.2-3.2c0-2.4-1.9-2.9-4-3.2c-1.2-0.1-2.2-0.4-2.2-1.2c0-0.7,0.7-1.3,2.1-1.3c1.1,0,2,0.5,2.4,1.1L140.8,28.7z
	 M150,35.1h-5.6v-2.2h5.4v-1.7h-5.4v-2.3h5.6v-1.8h-7.5V37h7.5V35.1z"/>
<path class="st0" d="M72.1,53.1h1.9V42.9h-2.2l-3.2,4.4l-3.2-4.4h-2.2v10.2h1.9v-7.4l3.3,4.5h0.4l3.4-4.4V53.1z M83.6,51.2h-5.8
	v-2.3h5.6v-1.8h-5.6v-2.4h5.8v-1.9h-7.7v10.3h7.7V51.2z M93.4,44.6c-0.8-1.6-2.5-2-4.1-2c-1.9,0-4,0.9-4,3c0,2.3,1.9,2.9,4.1,3.1
	c1.4,0.1,2.4,0.5,2.4,1.5c0,1.1-1.2,1.5-2.4,1.5c-1.3,0-2.5-0.5-2.9-1.6l-1.6,0.8c0.8,1.9,2.4,2.5,4.5,2.5c2.3,0,4.3-1,4.3-3.3
	c0-2.4-2-3-4.2-3.3c-1.2-0.1-2.3-0.4-2.3-1.3c0-0.8,0.7-1.4,2.1-1.4c1.1,0,2.1,0.6,2.5,1.1L93.4,44.6z M103.1,44.6
	c-0.8-1.6-2.5-2-4.1-2c-1.9,0-4,0.9-4,3c0,2.3,1.9,2.9,4.1,3.1c1.4,0.1,2.4,0.5,2.4,1.5c0,1.1-1.2,1.5-2.4,1.5
	c-1.3,0-2.5-0.5-2.9-1.6l-1.6,0.8c0.8,1.9,2.4,2.5,4.5,2.5c2.3,0,4.3-1,4.3-3.3c0-2.4-2-3-4.2-3.3c-1.2-0.1-2.3-0.4-2.3-1.3
	c0-0.8,0.7-1.4,2.1-1.4c1.1,0,2.1,0.6,2.5,1.1L103.1,44.6z M113.2,53.1h2.1l-4.6-10.3h-2.1l-4.6,10.3h2.1l0.9-1.9h5.4L113.2,53.1z
	 M111.5,49.4h-3.8l1.9-4.4L111.5,49.4z M124.6,44.2c-1.1-1-2.5-1.6-3.8-1.6c-3.7,0-5.5,2.7-5.5,5.5c0,2.7,1.6,5.2,5.5,5.2
	c1.8,0,3.1-0.7,4.1-1.8v-4.3h-4.4v1.7h2.6v1.8c-0.8,0.6-1.5,0.8-2.3,0.8c-2.6,0-3.6-1.7-3.6-3.4c0-2.1,1.3-3.8,3.6-3.8
	c0.9,0,1.9,0.4,2.6,1L124.6,44.2z M128.5,42.9h-1.9v10.3h1.9V42.9z M137.1,49.2l-5.1-6.4h-1.6v10.3h1.9v-6.9l5.4,6.9h1.2V42.9h-1.9
	V49.2z M149.7,44.2c-1.1-1-2.5-1.6-3.8-1.6c-3.7,0-5.5,2.7-5.5,5.5c0,2.7,1.6,5.2,5.5,5.2c1.8,0,3.1-0.7,4.1-1.8v-4.3h-4.4v1.7h2.6
	v1.8c-0.8,0.6-1.5,0.8-2.3,0.8c-2.6,0-3.6-1.7-3.6-3.4c0-2.1,1.3-3.8,3.6-3.8c0.9,0,1.9,0.4,2.6,1L149.7,44.2z"/>
</svg>
